<svg width="42" height="42" viewBox="0 0 42 42" fill="none" xmlns="http://www.w3.org/2000/svg">
<path d="M41.4556 30.4616C39.7935 26.0061 33.261 18.2466 30.0998 14.6952H30.2493C30.9288 14.6952 31.4795 14.1443 31.4795 13.465C31.4795 12.7855 30.9288 12.2347 30.2493 12.2347H30.045C31.9822 10.0602 34.8893 6.78617 35.7055 5.80704C37.3925 3.78332 36.8157 1.97281 35.8094 1.03732C34.3247 -0.342695 31.4548 -0.470255 28.799 1.41606C26.846 -0.451223 22.9855 -0.44745 21.0366 1.41606C18.3808 -0.470091 15.5109 -0.342695 14.0262 1.03732C13.0197 1.97281 12.4432 3.78332 14.1301 5.80704C14.9465 6.78625 17.8534 10.0602 19.7907 12.2347H19.5863C18.9069 12.2347 18.3561 12.7855 18.3561 13.465C18.3561 14.1443 18.9069 14.6952 19.5863 14.6952H19.7358C18.0457 16.594 16.4678 18.4492 14.715 20.668C14.5672 20.1544 14.0947 19.7783 13.5336 19.7783H1.2303C0.55084 19.7784 0 20.3291 0 21.0086V40.7698C0 41.4493 0.55084 42 1.2303 42H33.3564C39.2485 42 43.5688 36.1272 41.4556 30.4616ZM15.7016 2.83939C16.29 2.29231 18.3491 2.09397 20.442 4.11432C21.1058 4.75482 22.215 4.46271 22.4764 3.57775C22.6127 3.11649 23.5369 2.47755 24.9178 2.47755C26.2987 2.47755 27.2229 3.11649 27.3592 3.57775C27.6204 4.46221 28.7296 4.75531 29.3936 4.11432C31.4866 2.09389 33.5454 2.29224 34.134 2.83939C34.5467 3.22297 34.1115 3.87627 33.8154 4.23154C32.7765 5.47776 28.0552 10.7704 26.7476 12.2347H23.0879C21.7804 10.7704 17.0591 5.47776 16.0202 4.23154C15.7241 3.87627 15.2889 3.22297 15.7016 2.83939ZM8.81089 34.5378H2.46069V32.0784H9.94973C9.40151 32.792 9.00556 33.6278 8.81089 34.5378ZM12.3033 29.6178H2.46069V27.1587H12.3033V29.6178ZM12.3033 22.2388V24.6982H2.46069V22.2388H12.3033ZM2.46069 36.9982H8.78628C8.96733 37.9381 9.36132 38.8029 9.91742 39.5396H2.46069V36.9982ZM11.1344 35.8295C11.1344 33.7837 12.7988 32.1195 14.8471 32.1195C16.8929 32.1195 18.5573 33.7837 18.5573 35.8295C18.5573 37.8752 16.8929 39.5396 14.8471 39.5396C12.7921 39.5396 11.1344 37.8694 11.1344 35.8295ZM33.3564 39.5396H19.7745C20.5545 38.5061 21.0181 37.221 21.0181 35.8295C21.0181 32.4211 18.2304 29.6173 14.7639 29.661V24.6509C18.0592 20.1924 21.3991 16.5274 23.03 14.6952H26.8056L28.9201 17.0707C29.0047 17.1657 37.3994 26.6285 39.15 31.3216C40.6321 35.2948 37.6358 39.5396 33.3564 39.5396Z" fill="#F74F22"/>
</svg>
