<svg width="40" height="40" viewBox="0 0 40 40" fill="none" xmlns="http://www.w3.org/2000/svg">
<g clip-path="url(#clip0_9_4327)">
<g clip-path="url(#clip1_9_4327)">
<g clip-path="url(#clip2_9_4327)">
<path d="M39.2744 21.7196C39.8019 21.4559 39.8019 20.5989 39.2744 20.3352C35.1871 18.0937 31.0337 16.05 26.5508 14.8633C25.8915 14.7315 25.2323 15.4567 25.6278 16.05C26.5508 17.3685 27.6715 18.4892 28.99 19.4781C19.7605 19.2144 10.2012 17.9618 1.10346 20.1374C0.444208 20.2692 0.576055 21.3899 1.23542 21.3239C10.6628 20.1374 20.0243 21.0604 29.4516 21.1921C28.4627 22.3128 27.4739 23.4336 26.485 24.4884C26.0235 24.9499 26.2872 25.9389 27.0783 25.8729C31.4293 25.3454 35.5167 23.895 39.2744 21.7196ZM31.4293 20.9944C32.0226 20.5989 31.8908 19.4781 30.9678 19.4781C30.9019 19.4781 30.836 19.4781 30.836 19.4781C30.0449 18.687 29.2537 17.9618 28.4626 17.1048C31.4952 18.1596 34.33 19.4781 37.1648 20.9943C34.5937 22.3128 31.9567 23.3017 29.1219 23.8291C29.7812 23.1039 30.4404 22.3128 31.1656 21.5875C31.4293 21.4559 31.4952 21.1921 31.4293 20.9944Z" fill="white"/>
</g>
</g>
</g>
<defs>
<clipPath id="clip0_9_4327">
<rect width="39" height="39" fill="white" transform="translate(0.669983 0.861328)"/>
</clipPath>
<clipPath id="clip1_9_4327">
<rect width="39" height="39" fill="white" transform="translate(0.669983 0.861328)"/>
</clipPath>
<clipPath id="clip2_9_4327">
<rect width="39" height="39" fill="white" transform="translate(0.669983 0.861328)"/>
</clipPath>
</defs>
</svg>
