<svg width="43" height="42" viewBox="0 0 43 42" fill="none" xmlns="http://www.w3.org/2000/svg">
<path d="M25.3315 19.6875V17.0625C25.3315 16.7145 25.1932 16.3806 24.9471 16.1344C24.701 15.8883 24.3671 15.75 24.019 15.75H18.769C18.421 15.75 18.0871 15.8883 17.841 16.1344C17.5949 16.3806 17.4565 16.7145 17.4565 17.0625V19.6875H14.8315C14.4835 19.6875 14.1496 19.8258 13.9035 20.0719C13.6573 20.3181 13.519 20.652 13.519 21V26.25C13.519 26.598 13.6573 26.9319 13.9035 27.1781C14.1496 27.4242 14.4835 27.5625 14.8315 27.5625H17.4565V30.1875C17.4565 30.5355 17.5949 30.8694 17.841 31.1156C18.0871 31.3617 18.421 31.5 18.769 31.5H24.019C24.3671 31.5 24.701 31.3617 24.9471 31.1156C25.1932 30.8694 25.3315 30.5355 25.3315 30.1875V27.5625H27.9565C28.3046 27.5625 28.6385 27.4242 28.8846 27.1781C29.1307 26.9319 29.269 26.598 29.269 26.25V21C29.269 20.652 29.1307 20.3181 28.8846 20.0719C28.6385 19.8258 28.3046 19.6875 27.9565 19.6875H25.3315ZM26.644 24.9375H24.019C23.671 24.9375 23.3371 25.0758 23.091 25.3219C22.8449 25.5681 22.7065 25.902 22.7065 26.25V28.875H20.0815V26.25C20.0815 25.902 19.9432 25.5681 19.6971 25.3219C19.451 25.0758 19.1171 24.9375 18.769 24.9375H16.144V22.3125H18.769C19.1171 22.3125 19.451 22.1742 19.6971 21.9281C19.9432 21.6819 20.0815 21.348 20.0815 21V18.375H22.7065V21C22.7065 21.348 22.8449 21.6819 23.091 21.9281C23.3371 22.1742 23.671 22.3125 24.019 22.3125H26.644V24.9375Z" fill="#F74F22"/>
<path d="M38.4565 10.5H29.269V6.5625C29.269 6.2144 29.1307 5.88056 28.8846 5.63443C28.6385 5.38828 28.3046 5.25 27.9565 5.25H14.8315C14.4835 5.25 14.1496 5.38828 13.9035 5.63443C13.6573 5.88056 13.519 6.2144 13.519 6.5625V10.5H4.33154C3.98345 10.5 3.6496 10.6383 3.40347 10.8844C3.15732 11.1306 3.01904 11.4644 3.01904 11.8125V35.4375C3.01904 35.7855 3.15732 36.1194 3.40347 36.3656C3.6496 36.6117 3.98345 36.75 4.33154 36.75H38.4565C38.8046 36.75 39.1385 36.6117 39.3846 36.3656C39.6307 36.1194 39.769 35.7855 39.769 35.4375V11.8125C39.769 11.4644 39.6307 11.1306 39.3846 10.8844C39.1385 10.6383 38.8046 10.5 38.4565 10.5ZM16.144 7.875H26.644V10.5H16.144V7.875ZM37.144 34.125H5.64404V13.125H37.144V34.125Z" fill="#F74F22"/>
</svg>
