<svg width="43" height="42" viewBox="0 0 43 42" fill="none" xmlns="http://www.w3.org/2000/svg">
<g clip-path="url(#clip0_9_4284)">
<mask id="mask0_9_4284" style="mask-type:luminance" maskUnits="userSpaceOnUse" x="0" y="0" width="43" height="42">
<path d="M0.787598 0H42.7876V42H0.787598V0Z" fill="white"/>
</mask>
<g mask="url(#mask0_9_4284)">
<path d="M21.9693 20.8044C19.7475 22.6931 17.5531 23.9133 17.4608 23.9643C17.0906 24.1688 16.6409 24.1689 16.2706 23.9643C16.1783 23.9133 13.9837 22.6931 11.7621 20.8044C8.61674 18.1304 7.02197 15.5051 7.02197 13.0015C7.02197 7.7123 13.2431 4.90109 16.8657 8.52187C20.4949 4.89493 26.7095 7.72371 26.7095 13.0015C26.7094 15.5051 25.1146 18.1304 21.9693 20.8044ZM21.5497 9.45695C20.0208 9.06417 18.7006 9.77736 17.9438 11.1534C17.4771 12.0022 16.2542 12.0022 15.7874 11.1534C14.9962 9.71443 13.6482 9.08026 12.1816 9.45695C10.8383 9.80197 9.48291 11.0317 9.48291 13.0015C9.48291 16.3123 14.3523 19.9431 16.861 21.4616C19.6217 19.7718 24.2484 16.2406 24.2484 13.0015C24.2484 11.0318 22.8931 9.80197 21.5497 9.45695Z" fill="#F74F22"/>
<path d="M16.8657 4.42969C16.1862 4.42969 15.6353 3.87876 15.6353 3.19922V1.88672C15.6353 1.20717 16.1862 0.65625 16.8657 0.65625C17.5452 0.65625 18.0962 1.20717 18.0962 1.88672V3.19922C18.0962 3.87876 17.5452 4.42969 16.8657 4.42969Z" fill="#F74F22"/>
<path d="M28.1268 6.39386C27.6463 6.87441 26.8672 6.8745 26.3866 6.39386C25.9061 5.91333 25.9061 5.13428 26.3866 4.65374L27.3147 3.72564C27.7951 3.2451 28.5743 3.2451 29.0549 3.72564C29.5354 4.20617 29.5354 4.98523 29.0549 5.46577L28.1268 6.39386Z" fill="#F74F22"/>
<path d="M31.7133 15.5039H30.4009C29.7212 15.5039 29.1704 14.9531 29.1704 14.2734C29.1704 13.5939 29.7212 13.043 30.4009 13.043H31.7133C32.393 13.043 32.9438 13.5939 32.9438 14.2734C32.9438 14.9531 32.393 15.5039 31.7133 15.5039Z" fill="#F74F22"/>
<path d="M5.60441 6.39379L4.67639 5.46577C4.19584 4.98524 4.19584 4.20619 4.67639 3.72564C5.15684 3.2451 5.93598 3.2451 6.41652 3.72564L7.34453 4.65366C7.82508 5.13419 7.82508 5.91326 7.34453 6.39379C6.86408 6.87424 6.08486 6.87433 5.60441 6.39379Z" fill="#F74F22"/>
<path d="M2.01807 13.043H3.33057C4.01012 13.043 4.56103 13.5939 4.56103 14.2734C4.56103 14.9531 4.01012 15.5039 3.33057 15.5039H2.01807C1.33852 15.5039 0.787598 14.9531 0.787598 14.2734C0.787598 13.5939 1.33852 13.043 2.01807 13.043Z" fill="#F74F22"/>
<path d="M7.76027 33.961H16.2338C15.6234 32.3445 16.1792 30.4831 17.6652 29.4783L25.282 24.3283C25.4855 24.1908 25.7255 24.1172 25.9712 24.1172H32.8619V22.8867C32.8619 22.2072 33.4127 21.6562 34.0923 21.6562H41.5571C42.2366 21.6562 42.7876 22.2072 42.7876 22.8867V38.8829C42.7876 39.5624 42.2366 40.1133 41.5571 40.1133H34.0923C33.4127 40.1133 32.8619 39.5624 32.8619 38.8829V37.6524H31.0752L23.1129 41.2354C22.9541 41.3069 22.782 41.3438 22.6079 41.3438H7.76027C5.72482 41.3438 4.06885 39.6879 4.06885 37.6524C4.06885 35.6169 5.72482 33.961 7.76027 33.961ZM35.3228 37.6524H40.3267V24.1172H35.3228V37.6524ZM7.76027 38.8829H22.3438L30.3061 35.2998C30.4649 35.2284 30.637 35.1915 30.811 35.1915H32.8619V26.5781H26.3482L19.0437 31.517C18.4458 31.9212 18.275 32.7187 18.6548 33.3325C18.904 33.7352 19.337 33.961 19.7367 33.961C19.7771 33.961 19.8169 33.9631 19.8564 33.9671C20.0623 33.9572 20.2692 33.8999 20.461 33.7898L24.4568 31.499C25.0463 31.161 25.7982 31.3649 26.1363 31.9544C26.4742 32.5439 26.2703 33.296 25.6808 33.6339L21.685 35.9248C21.0842 36.2692 20.4315 36.4335 19.7881 36.4335C19.7881 36.4335 20.3616 36.4218 7.76027 36.4218C7.08177 36.4218 6.52979 36.9738 6.52979 37.6523C6.52979 38.3308 7.08177 38.8829 7.76027 38.8829Z" fill="#F74F22"/>
</g>
</g>
<defs>
<clipPath id="clip0_9_4284">
<rect width="42" height="42" fill="white" transform="translate(0.787598)"/>
</clipPath>
</defs>
</svg>
