<svg width="15" height="15" viewBox="0 0 15 15" fill="none" xmlns="http://www.w3.org/2000/svg">
<path d="M13.25 1.15H12.55V0H11.35V1.15H3.65V0H2.45V1.15H1.75C1.28333 1.15 0.875 1.325 0.525 1.675C0.175 2.025 0 2.45 0 2.95V13.25C0 13.7167 0.175 14.125 0.525 14.475C0.875 14.825 1.28333 15 1.75 15H13.25C13.7167 15 14.125 14.825 14.475 14.475C14.825 14.125 15 13.7167 15 13.25V2.95C15 2.45 14.825 2.025 14.475 1.675C14.125 1.325 13.7167 1.15 13.25 1.15ZM13.85 13.25C13.85 13.4167 13.7917 13.5583 13.675 13.675C13.5583 13.7917 13.4167 13.85 13.25 13.85H1.75C1.58333 13.85 1.44167 13.7917 1.325 13.675C1.20833 13.5583 1.15 13.4167 1.15 13.25V5.5H13.85V13.25ZM13.85 4.35H1.15V2.95C1.15 2.78333 1.20833 2.64167 1.325 2.525C1.44167 2.40833 1.58333 2.35 1.75 2.35H2.45V3.5H3.65V2.35H11.35V3.5H12.55V2.35H13.25C13.4167 2.35 13.5583 2.40833 13.675 2.525C13.7917 2.64167 13.85 2.78333 13.85 2.95V4.35ZM2.25 6.75H3.4V7.9H2.25V6.75ZM4.55 6.75H5.75V7.9H4.55V6.75ZM6.9 6.75H8.1V7.9H6.9V6.75ZM9.25 6.75H10.45V7.9H9.25V6.75ZM11.6 6.75H12.75V7.9H11.6V6.75ZM2.25 9.1H3.4V10.25H2.25V9.1ZM4.55 9.1H5.75V10.25H4.55V9.1ZM6.9 9.1H8.1V10.25H6.9V9.1ZM9.25 9.1H10.45V10.25H9.25V9.1ZM2.25 11.45H3.4V12.6H2.25V11.45ZM4.55 11.45H5.75V12.6H4.55V11.45ZM6.9 11.45H8.1V12.6H6.9V11.45ZM9.25 11.45H10.45V12.6H9.25V11.45ZM11.6 9.1H12.75V10.25H11.6V9.1Z" fill="#F74F22"/>
</svg>
