<svg width="21" height="17" viewBox="0 0 21 17" fill="none" xmlns="http://www.w3.org/2000/svg">
<path d="M4.21289 12.6875C3.08008 12.6875 2.14258 13.625 2.14258 14.7578C2.14258 15.8906 3.08008 16.8281 4.21289 16.8281C5.3457 16.8281 6.2832 15.8906 6.2832 14.7578C6.2832 13.625 5.3457 12.6875 4.21289 12.6875ZM4.21289 15.6562C3.70508 15.6562 3.31445 15.2656 3.31445 14.7578C3.31445 14.2891 3.70508 13.8984 4.21289 13.8984C4.68164 13.8984 5.07227 14.2891 5.07227 14.7578C5.07227 15.2656 4.68164 15.6562 4.21289 15.6562ZM14.2129 12.6875C13.0801 12.6875 12.1426 13.625 12.1426 14.7578C12.1426 15.8906 13.0801 16.8281 14.2129 16.8281C15.3457 16.8281 16.2832 15.8906 16.2832 14.7578C16.2832 13.625 15.3457 12.6875 14.2129 12.6875ZM14.2129 15.6562C13.7051 15.6562 13.3145 15.2656 13.3145 14.7578C13.3145 14.2891 13.7051 13.8984 14.2129 13.8984C14.6816 13.8984 15.0723 14.2891 15.0723 14.7578C15.0723 15.2656 14.6816 15.6562 14.2129 15.6562ZM16.7129 0.34375L16.3613 2.6875H0.892578L2.18164 12.1406H16.2051L17.416 3.39062L17.7285 1.51562H20.9707V0.34375H16.7129ZM16.166 3.89844L16.0098 5.07031H2.41602L2.2207 3.89844H16.166ZM3.23633 10.9688L2.57227 6.24219H15.8535L15.1895 10.9688H3.23633Z" fill="#061408"/>
</svg>
