<svg width="16" height="15" viewBox="0 0 16 15" fill="none" xmlns="http://www.w3.org/2000/svg">
<path d="M3.77 6.45H4.02C4.08666 6.45 4.13666 6.43333 4.17 6.4C4.20333 6.36667 4.22 6.31667 4.22 6.25C4.22 6.18333 4.20333 6.125 4.17 6.075C4.13666 6.025 4.08666 6 4.02 6H3.77C3.70333 6 3.645 6.025 3.595 6.075C3.545 6.125 3.52 6.18333 3.52 6.25C3.52 6.31667 3.545 6.36667 3.595 6.4C3.645 6.43333 3.70333 6.45 3.77 6.45ZM5.92 6.45H6.17C6.23666 6.45 6.28666 6.43333 6.32 6.4C6.35333 6.36667 6.37 6.31667 6.37 6.25C6.37 6.18333 6.35333 6.125 6.32 6.075C6.28666 6.025 6.23666 6 6.17 6H5.92C5.85333 6 5.795 6.025 5.745 6.075C5.695 6.125 5.67 6.18333 5.67 6.25C5.67 6.31667 5.695 6.36667 5.745 6.4C5.795 6.43333 5.85333 6.45 5.92 6.45ZM8.07 6.45H8.32C8.38666 6.45 8.445 6.43333 8.495 6.4C8.545 6.36667 8.57 6.31667 8.57 6.25C8.57 6.18333 8.545 6.125 8.495 6.075C8.445 6.025 8.38666 6 8.32 6H8.07C8.00333 6 7.945 6.025 7.895 6.075C7.845 6.125 7.82 6.18333 7.82 6.25C7.82 6.31667 7.845 6.36667 7.895 6.4C7.945 6.43333 8.00333 6.45 8.07 6.45ZM11.77 3.9C11.7033 3.86667 11.6367 3.86667 11.57 3.9C11.5033 3.93333 11.4533 3.975 11.42 4.025C11.3867 4.075 11.3867 4.13333 11.42 4.2C11.4533 4.26667 11.4867 4.31667 11.52 4.35C12.3533 4.78333 13.0117 5.39167 13.495 6.175C13.9783 6.95833 14.22 7.81667 14.22 8.75C14.22 9.38333 14.1117 9.98333 13.895 10.55C13.6783 11.1167 13.37 11.6333 12.97 12.1C12.9033 12.1667 12.8867 12.2333 12.92 12.3C13.02 12.8333 13.2367 13.2833 13.57 13.65C12.97 13.5167 12.4367 13.3333 11.97 13.1C11.9033 13.0333 11.82 13.0333 11.72 13.1C10.9533 13.5333 10.12 13.75 9.22 13.75C8.48666 13.75 7.78666 13.5917 7.12 13.275C6.45333 12.9583 5.88666 12.5167 5.42 11.95C5.35333 11.8833 5.28666 11.85 5.22 11.85C5.15333 11.85 5.095 11.875 5.045 11.925C4.995 11.975 4.97 12.025 4.97 12.075C4.97 12.125 4.98666 12.1833 5.02 12.25C5.55333 12.8833 6.18666 13.375 6.92 13.725C7.65333 14.075 8.42 14.25 9.22 14.25C10.1533 14.25 11.0367 14.0167 11.87 13.55C12.4033 13.8167 12.9867 14.0167 13.62 14.15C13.9533 14.1833 14.2367 14.2167 14.47 14.25C14.6033 14.25 14.6783 14.1833 14.695 14.05C14.7117 13.9167 14.67 13.8333 14.57 13.8C13.9367 13.4667 13.5367 12.9833 13.37 12.35C13.8033 11.85 14.1367 11.2917 14.37 10.675C14.6033 10.0583 14.72 9.41667 14.72 8.75C14.72 7.75 14.4533 6.80833 13.92 5.925C13.3867 5.04167 12.67 4.36667 11.77 3.9ZM0.769995 11.25C0.669995 11.3167 0.628328 11.4083 0.644995 11.525C0.661662 11.6417 0.736662 11.7 0.869995 11.7C1.10333 11.7 1.38666 11.6667 1.72 11.6C2.35333 11.4667 2.93666 11.2667 3.47 11C4.30333 11.4667 5.195 11.7 6.145 11.7C7.095 11.7 7.98666 11.45 8.81999 10.95C9.65333 10.45 10.32 9.78333 10.82 8.95C11.32 8.11667 11.57 7.20833 11.57 6.225C11.57 5.24167 11.32 4.33333 10.82 3.5C10.32 2.66667 9.65333 2 8.81999 1.5C7.98666 1 7.07833 0.75 6.095 0.75C5.11166 0.75 4.20333 1 3.37 1.5C2.53666 2 1.87 2.66667 1.37 3.5C0.869995 4.33333 0.619995 5.25 0.619995 6.25C0.619995 6.88333 0.736662 7.50833 0.969995 8.125C1.20333 8.74167 1.53666 9.3 1.97 9.8C1.80333 10.4667 1.40333 10.95 0.769995 11.25ZM1.12 6.25C1.12 5.35 1.345 4.51667 1.795 3.75C2.245 2.98333 2.85333 2.375 3.62 1.925C4.38666 1.475 5.22 1.25 6.12 1.25C7.02 1.25 7.85333 1.475 8.62 1.925C9.38666 2.375 9.98666 2.98333 10.42 3.75C10.8533 4.51667 11.07 5.35 11.07 6.25C11.07 7.15 10.8533 7.98333 10.42 8.75C9.98666 9.51667 9.38666 10.125 8.62 10.575C7.85333 11.025 7.02 11.25 6.12 11.25C5.22 11.25 4.38666 11.0167 3.62 10.55C3.55333 10.5167 3.50333 10.5 3.47 10.5L3.37 10.55C2.90333 10.8167 2.37 11 1.77 11.1C2.10333 10.7333 2.32 10.2833 2.42 9.75C2.45333 9.68333 2.43666 9.61667 2.37 9.55C1.97 9.11667 1.66166 8.60833 1.445 8.025C1.22833 7.44167 1.12 6.85 1.12 6.25Z" fill="#F74F22"/>
</svg>
