<svg width="215" height="215" viewBox="0 0 215 215" fill="none" xmlns="http://www.w3.org/2000/svg">
<g clip-path="url(#clip0_9_4023)">
<g clip-path="url(#clip1_9_4023)">
<path d="M107.493 213.94C102.906 213.94 98.8838 206.319 94.4191 205.744C89.9544 205.169 83.9892 211.456 79.6598 210.306C75.3304 209.157 73.3379 200.728 69.1684 199.003C64.9989 197.279 57.6315 201.829 53.7203 199.578C49.809 197.328 50.1288 188.703 46.5374 185.963C42.9459 183.223 34.6684 185.743 31.4582 182.563C28.2481 179.382 30.8064 171.137 28.039 167.565C25.2716 163.993 16.6251 164.324 14.3497 160.422C12.0743 156.519 16.6743 149.229 14.9277 145.057C13.1812 140.886 4.74381 139.002 3.56306 134.623C2.38231 130.244 8.7534 124.445 8.15073 119.944C7.54806 115.442 -0.0898438 111.503 -0.0898438 106.94C-0.0898438 102.377 7.57266 98.3779 8.15073 93.9252C8.72881 89.4725 2.40691 83.5519 3.56306 79.246C4.71921 74.9401 13.1935 72.9584 14.9277 68.8115C16.662 64.6646 12.0866 57.3373 14.3497 53.4473C16.6128 49.5573 25.2839 49.8753 28.039 46.3034C30.7941 42.7315 28.2604 34.4988 31.4582 31.3061C34.6561 28.1134 42.9459 30.6578 46.5374 27.9054C50.1288 25.1531 49.7721 16.529 53.708 14.2538C57.6438 11.9785 64.962 16.5657 69.1561 14.8287C73.3502 13.0917 75.3058 4.70002 79.6475 3.52569C83.9892 2.35135 89.8806 8.68785 94.4068 8.08845C98.933 7.48905 102.893 -0.107422 107.481 -0.107422C112.069 -0.107422 116.091 7.51352 120.568 8.08845C125.045 8.66339 130.998 2.37581 135.327 3.52569C139.657 4.67556 141.649 13.1039 145.819 14.8287C149.988 16.5535 157.355 12.0029 161.267 14.2538C165.178 16.5046 164.858 25.1286 168.45 27.8687C172.041 30.6089 180.319 28.0889 183.529 31.2694C186.739 34.4499 184.181 42.6948 186.948 46.2667C189.715 49.8386 198.362 49.5084 200.637 53.4106C202.913 57.3128 198.313 64.6035 200.059 68.787C201.806 72.9706 210.243 74.83 211.424 79.2093C212.605 83.5886 206.234 89.3869 206.836 93.8885C207.439 98.3901 215.077 102.329 215.077 106.904C215.077 111.479 207.414 115.466 206.836 119.907C206.258 124.347 212.58 130.28 211.424 134.586C210.268 138.892 201.793 140.874 200.059 145.021C198.325 149.167 202.9 156.495 200.637 160.385C198.374 164.275 189.703 163.957 186.948 167.529C184.193 171.101 186.727 179.333 183.529 182.526C180.331 185.719 172.041 183.174 168.45 185.927C164.858 188.679 165.19 197.279 161.267 199.542C157.343 201.805 150.013 197.23 145.806 198.967C141.6 200.704 139.73 209.095 135.327 210.27C130.924 211.444 125.094 205.12 120.568 205.707C116.042 206.294 112.093 213.94 107.493 213.94Z" fill="#122F2A"/>
</g>
</g>
<defs>
<clipPath id="clip0_9_4023">
<rect width="215" height="214" fill="white" transform="translate(0 0.230469)"/>
</clipPath>
<clipPath id="clip1_9_4023">
<rect width="216" height="215" fill="white" transform="translate(-0.5 -0.269531)"/>
</clipPath>
</defs>
</svg>
