<svg width="40" height="34" viewBox="0 0 40 34" fill="none" xmlns="http://www.w3.org/2000/svg">
<path d="M30.4555 0.857049C26.7876 0.111741 23.0153 1.18694 20.3622 3.72054C20.252 3.82542 20.1102 3.82601 20.0012 3.72111C17.3476 1.18577 13.5746 0.112917 9.90726 0.857049C4.86645 1.87717 1.19966 6.22014 0.989885 11.4186C0.875081 14.2531 2.04385 17.3678 4.42525 19.7389C4.42582 19.7401 4.427 19.7401 4.42817 19.7412C4.43051 19.7436 4.43344 19.7459 4.43578 19.7495C4.63676 19.9487 6.35297 21.6525 16.8055 31.9944C18.6648 33.8349 21.695 33.8354 23.5584 31.9932C25.8324 29.7444 33.5178 22.1445 35.9346 19.7412C38.1386 17.5489 39.4978 14.4853 39.373 11.4186C39.1631 6.22014 35.4958 1.87717 30.4555 0.857049ZM21.8885 30.3068L21.8698 30.2881C20.9393 31.2092 19.4258 31.2104 18.493 30.2881C7.48383 19.3956 6.17017 18.0889 6.10747 18.0267C6.10629 18.0257 6.10513 18.0245 6.10454 18.0233C5.59075 17.51 5.15122 16.9493 4.7754 16.3615H13.0614L16.3942 21.2389C16.6186 21.567 16.9895 21.7615 17.385 21.7615C17.398 21.7615 17.4108 21.7615 17.4236 21.7604C17.8338 21.7475 18.2088 21.5259 18.4175 21.1733L23.7881 12.1041L25.9982 15.7803C26.2151 16.1412 26.6053 16.3615 27.0266 16.3615H35.5872C35.2075 16.9553 34.7629 17.5217 34.2425 18.0397C30.147 22.1123 22.1754 29.9558 21.8885 30.3068ZM36.9752 11.5158C37.0085 12.3336 36.8995 13.157 36.6738 13.9615H27.7051L24.8088 9.14339C24.5921 8.78243 24.2018 8.56151 23.7805 8.56151C23.3533 8.59607 22.9637 8.78543 22.748 9.14987L17.3124 18.3291L14.6856 14.4842C14.4618 14.1572 14.0909 13.9615 13.6948 13.9615H3.68908C3.46328 13.1567 3.35444 12.3327 3.38755 11.5147C3.55277 7.42483 6.42915 4.0094 10.3831 3.20901C13.3244 2.61428 16.2254 3.43284 18.3436 5.45725C19.3748 6.44046 20.9885 6.43869 22.0198 5.45666C24.1368 3.43401 27.0383 2.61662 29.9797 3.20901C33.933 4.0094 36.8094 7.42601 36.9752 11.5158Z" fill="#F74F22"/>
</svg>
