<svg width="43" height="42" viewBox="0 0 43 42" fill="none" xmlns="http://www.w3.org/2000/svg">
<path d="M39.7928 14.585L35.0702 13.0865C36.7777 11.8565 37.5068 9.90557 36.984 8.05167C35.9567 4.40924 30.8624 3.02652 27.6439 5.50689L24.3832 8.01968L23.7381 4.25116C23.1004 0.54098 18.1731 -1.24402 14.7069 0.966721C12.9737 2.0721 12.0517 3.97759 12.4606 5.91237L8.00808 4.49963C5.81749 3.80442 3.38611 4.79274 2.58862 6.70267L0.660562 11.3208C0.394361 11.9584 0.771505 12.6635 1.50302 12.8955C1.7997 12.9896 23.2152 19.7847 23.5297 19.8845C22.6384 19.8845 3.11972 19.8845 2.26098 19.8845C1.4826 19.8845 0.851577 20.4346 0.851577 21.1132V38.3141C0.851577 40.3465 2.74831 42 5.07968 42H16.3547H21.9922H33.2671C35.5984 42 37.4952 40.3465 37.4952 38.3141V24.3158L38.5855 24.6617C39.3134 24.8929 40.1244 24.5677 40.3918 23.9274L42.3201 19.3093C43.1172 17.3994 41.9836 15.2801 39.7928 14.585ZM14.9451 39.5427H5.07958C4.30242 39.5427 3.67018 38.9915 3.67018 38.3141V22.3418H14.9451V39.5427ZM20.5826 39.5427H17.7639V22.3418H20.5826V39.5427ZM29.5107 7.348C31.1457 6.08792 33.7267 6.79479 34.2467 8.63843C34.8012 10.6041 32.6218 12.3086 30.4403 11.6176C28.585 11.0288 27.7156 10.7529 25.8575 10.1634L29.5107 7.348ZM16.3711 2.95008C18.1326 1.82673 20.6278 2.73827 20.9507 4.61554L21.6734 8.83564C21.1531 8.67059 17.6025 7.5439 17.0909 7.38164C14.9093 6.68905 14.4972 4.14493 16.3711 2.95008ZM17.035 15.2088L3.79138 11.0066L5.23747 7.54307C5.50329 6.90642 6.31375 6.57716 7.04396 6.80873C8.52599 7.27894 18.506 10.4456 18.9631 10.5906L17.035 15.2088ZM22.3326 16.8898L19.6838 16.0492L21.6119 11.4312L24.2607 12.2717L22.3326 16.8898ZM34.6763 38.3141C34.6763 38.9915 34.044 39.5427 33.2669 39.5427H23.4014V22.3418H31.2741L34.6763 23.4213V38.3141ZM39.6709 18.4687L38.2249 21.9323L24.9813 17.7301L26.9095 13.112L38.8288 16.8939C39.559 17.1256 39.9369 17.8321 39.6709 18.4687Z" fill="#F74F22"/>
</svg>
