<svg width="46" height="46" viewBox="0 0 46 46" fill="none" xmlns="http://www.w3.org/2000/svg">
<path d="M26.7081 5.7606C26.5081 5.6606 26.2831 5.6606 26.0331 5.7606C25.7831 5.8606 25.6081 6.0106 25.5081 6.2106C25.4081 6.4106 25.4081 6.6356 25.5081 6.8856C25.6081 7.1356 25.8081 7.3106 26.1081 7.4106C27.7081 8.1106 28.9831 9.2106 29.9331 10.7106C30.8831 12.2106 31.3581 13.8106 31.3581 15.5106C31.3581 17.2106 30.9581 18.7356 30.1581 20.0856C29.3581 21.4356 28.2831 22.5106 26.9331 23.3106C25.5831 24.1106 24.1081 24.5106 22.5081 24.5106C20.9081 24.5106 19.4331 24.1106 18.0831 23.3106C16.7331 22.5106 15.6581 21.4356 14.8581 20.0856C14.0581 18.7356 13.6581 17.2106 13.6581 15.5106C13.6581 13.8106 14.1331 12.2106 15.0831 10.7106C16.0331 9.2106 17.3081 8.1106 18.9081 7.4106C19.2081 7.3106 19.4081 7.1356 19.5081 6.8856C19.6081 6.6356 19.6081 6.4106 19.5081 6.2106C19.4081 6.0106 19.2331 5.8606 18.9831 5.7606C18.7331 5.6606 18.5081 5.6606 18.3081 5.7606C16.3081 6.5606 14.7331 7.8606 13.5831 9.6606C12.4331 11.4606 11.8581 13.3856 11.8581 15.4356C11.8581 17.4856 12.3331 19.3106 13.2831 20.9106C14.2331 22.5106 15.5331 23.8106 17.1831 24.8106C18.8331 25.8106 20.6081 26.3106 22.5081 26.3106C24.4081 26.3106 26.1831 25.8106 27.8331 24.8106C29.4831 23.8106 30.7831 22.5106 31.7331 20.9106C32.6831 19.3106 33.1581 17.4856 33.1581 15.4356C33.1581 13.3856 32.5831 11.4606 31.4331 9.6606C30.2831 7.8606 28.7081 6.5606 26.7081 5.7606ZM37.3581 14.4606C37.9581 13.5606 38.1331 12.5606 37.8831 11.4606C37.6331 10.3606 37.0081 9.5606 36.0081 9.0606C35.6081 8.8606 35.3081 8.5856 35.1081 8.2356C34.9081 7.8856 34.8081 7.5106 34.8081 7.1106C34.9081 6.0106 34.5581 5.0606 33.7581 4.2606C32.9581 3.4606 32.0081 3.1106 30.9081 3.2106C30.5081 3.2106 30.1331 3.1106 29.7831 2.9106C29.4331 2.7106 29.1581 2.4606 28.9581 2.1606C28.4581 1.1606 27.6831 0.510601 26.6331 0.210602C25.5831 -0.0893974 24.5581 0.0606003 23.5581 0.660603C23.2581 0.860603 22.9081 0.960602 22.5081 0.960602C22.1081 0.960602 21.7581 0.860603 21.4581 0.660603C20.4581 0.0606003 19.4331 -0.0893974 18.3831 0.210602C17.3331 0.510601 16.5581 1.1606 16.0581 2.1606C15.8581 2.4606 15.5831 2.7106 15.2331 2.9106C14.8831 3.1106 14.5081 3.2106 14.1081 3.2106C13.0081 3.1106 12.0581 3.4606 11.2581 4.2606C10.4581 5.0606 10.1081 6.0106 10.2081 7.1106C10.2081 7.5106 10.1081 7.8856 9.90812 8.2356C9.70812 8.5856 9.40812 8.8606 9.00812 9.0606C8.00812 9.5606 7.38312 10.3606 7.13312 11.4606C6.88312 12.5606 7.05812 13.5606 7.65812 14.4606C7.85812 14.7606 7.95812 15.1106 7.95812 15.5106C7.95812 15.9106 7.85812 16.3106 7.65812 16.7106C7.05812 17.6106 6.88312 18.6106 7.13312 19.7106C7.38312 20.8106 8.00812 21.6106 9.00812 22.1106C9.40812 22.3106 9.70812 22.5606 9.90812 22.8606C10.1081 23.1606 10.2081 23.5106 10.2081 23.9106C10.1081 25.1106 10.4581 26.0856 11.2581 26.8356C12.0581 27.5856 13.0081 27.9606 14.1081 27.9606C14.4081 27.9606 14.7081 28.0106 15.0081 28.1106V44.1606C15.0081 44.5606 15.1081 44.8106 15.3081 44.9106C15.5081 45.0106 15.6831 45.0606 15.8331 45.0606C15.9831 45.0606 16.1581 45.0106 16.3581 44.9106L22.5081 41.3106L28.3581 44.9106C28.6581 45.1106 28.9581 45.1356 29.2581 44.9856C29.5581 44.8356 29.7081 44.5606 29.7081 44.1606V28.2606C30.1081 28.0606 30.5081 27.9606 30.9081 27.9606C32.0081 27.9606 32.9581 27.5856 33.7581 26.8356C34.5581 26.0856 34.9081 25.1106 34.8081 23.9106C34.8081 23.5106 34.9081 23.1606 35.1081 22.8606C35.3081 22.5606 35.6081 22.3106 36.0081 22.1106C37.0081 21.6106 37.6331 20.8106 37.8831 19.7106C38.1331 18.6106 37.9581 17.6106 37.3581 16.7106C37.1581 16.3106 37.0581 15.9106 37.0581 15.5106C37.0581 15.1106 37.1581 14.7606 37.3581 14.4606ZM19.5081 41.0106L16.8081 42.6606V30.0606C17.2081 30.4606 17.7581 30.7606 18.4581 30.9606C18.7581 31.0606 19.1081 31.1106 19.5081 31.1106V41.0106ZM22.9581 39.5106C22.6581 39.3106 22.3581 39.3106 22.0581 39.5106L21.3081 39.9606V30.5106H21.4581C21.7581 30.3106 22.1081 30.2106 22.5081 30.2106C22.9081 30.2106 23.2581 30.3106 23.5581 30.5106H23.7081V39.9606L22.9581 39.5106ZM27.9081 42.6606L25.5081 41.1606V31.1106H25.6581C25.9581 31.1106 26.3081 31.0606 26.7081 30.9606C27.1081 30.8606 27.5081 30.6606 27.9081 30.3606V42.6606ZM36.0081 17.6106C36.3081 18.1106 36.3831 18.6606 36.2331 19.2606C36.0831 19.8606 35.7081 20.3106 35.1081 20.6106C34.5081 20.9106 34.0081 21.3856 33.6081 22.0356C33.2081 22.6856 33.0331 23.3356 33.0831 23.9856C33.1331 24.6356 32.9581 25.1606 32.5581 25.5606C32.1581 25.9606 31.6081 26.1606 30.9081 26.1606C30.2081 26.1606 29.5331 26.3356 28.8831 26.6856C28.2331 27.0356 27.7581 27.5106 27.4581 28.1106C27.1581 28.7106 26.7331 29.0856 26.1831 29.2356C25.6331 29.3856 25.0581 29.2856 24.4581 28.9356C23.8581 28.5856 23.2081 28.4106 22.5081 28.4106C21.8081 28.4106 21.1581 28.5856 20.5581 28.9356C19.9581 29.2856 19.3831 29.3856 18.8331 29.2356C18.2831 29.0856 17.8581 28.7106 17.5581 28.1106C17.2581 27.5106 16.7831 27.0356 16.1331 26.6856C15.4831 26.3356 14.8081 26.1606 14.1081 26.1606C13.4081 26.1606 12.8581 25.9606 12.4581 25.5606C12.0581 25.1606 11.8831 24.6356 11.9331 23.9856C11.9831 23.3356 11.8081 22.6856 11.4081 22.0356C11.0081 21.3856 10.5081 20.9106 9.90812 20.6106C9.30812 20.3106 8.93312 19.8606 8.78312 19.2606C8.63312 18.6606 8.73312 18.0856 9.08312 17.5356C9.43312 16.9856 9.60812 16.3356 9.60812 15.5856C9.60812 14.8356 9.43312 14.1856 9.08312 13.6356C8.73312 13.0856 8.63312 12.5106 8.78312 11.9106C8.93312 11.3106 9.30812 10.8606 9.90812 10.5606C10.5081 10.2606 11.0081 9.7856 11.4081 9.1356C11.8081 8.4856 11.9831 7.8356 11.9331 7.1856C11.8831 6.5356 12.0581 5.9856 12.4581 5.5356C12.8581 5.0856 13.4081 4.8856 14.1081 4.9356C14.8081 4.9856 15.4831 4.8356 16.1331 4.4856C16.7831 4.1356 17.2581 3.6606 17.5581 3.0606C17.8581 2.4606 18.2831 2.0856 18.8331 1.9356C19.3831 1.7856 19.9581 1.8856 20.5581 2.2356C21.1581 2.5856 21.8081 2.7606 22.5081 2.7606C23.2081 2.7606 23.8581 2.5856 24.4581 2.2356C25.0581 1.8856 25.6331 1.7856 26.1831 1.9356C26.7331 2.0856 27.1581 2.4606 27.4581 3.0606C27.7581 3.6606 28.2331 4.1356 28.8831 4.4856C29.5331 4.8356 30.2081 4.9856 30.9081 4.9356C31.6081 4.8856 32.1581 5.0856 32.5581 5.5356C32.9581 5.9856 33.1331 6.5356 33.0831 7.1856C33.0331 7.8356 33.2081 8.4856 33.6081 9.1356C34.0081 9.7856 34.5081 10.2606 35.1081 10.5606C35.7081 10.8606 36.0831 11.3106 36.2331 11.9106C36.3831 12.5106 36.2831 13.0856 35.9331 13.6356C35.5831 14.1856 35.4081 14.8356 35.4081 15.5856C35.4081 16.3356 35.6081 17.0106 36.0081 17.6106ZM16.6581 13.7106C16.3581 14.3106 16.4581 14.8606 16.9581 15.3606L18.6081 16.8606L18.1581 19.1106C18.0581 19.7106 18.3081 20.2106 18.9081 20.6106C19.2081 20.9106 19.5081 21.0606 19.8081 21.0606C20.1081 21.0606 20.3581 20.9606 20.5581 20.7606L22.5081 19.8606L24.4581 20.7606C25.0581 21.0606 25.6331 21.0106 26.1831 20.6106C26.7331 20.2106 26.9581 19.7106 26.8581 19.1106L26.5581 16.8606L28.0581 15.3606C28.5581 14.8606 28.7081 14.2856 28.5081 13.6356C28.3081 12.9856 27.8581 12.6106 27.1581 12.5106L24.9081 12.2106L24.0081 10.2606C23.7081 9.6606 23.2081 9.3606 22.5081 9.3606C21.8081 9.3606 21.3081 9.6606 21.0081 10.2606L20.1081 12.2106L18.0081 12.5106C17.3081 12.6106 16.8581 13.0106 16.6581 13.7106ZM20.8581 14.0106C21.1581 13.9106 21.3581 13.7106 21.4581 13.4106L22.5081 11.3106L23.5581 13.4106C23.7581 13.7106 24.0081 13.9106 24.3081 14.0106L26.7081 14.3106L24.9081 15.9606C24.7081 16.1606 24.6081 16.4106 24.6081 16.7106L25.0581 19.1106L23.1081 18.0606C22.7081 17.8606 22.3581 17.8606 22.0581 18.0606L19.9581 19.1106L20.4081 16.7106C20.4081 16.4106 20.3081 16.1606 20.1081 15.9606L18.4581 14.3106L20.8581 14.0106ZM22.5081 6.6606C22.7081 6.6606 22.9081 6.5606 23.1081 6.3606C23.3081 6.1606 23.4081 5.9606 23.4081 5.7606C23.4081 5.2606 23.1581 4.9606 22.6581 4.8606C22.1581 4.7606 21.8331 4.9106 21.6831 5.3106C21.5331 5.7106 21.5581 6.0356 21.7581 6.2856C21.9581 6.5356 22.2081 6.6606 22.5081 6.6606Z" fill="#35DA4E"/>
</svg>
