<svg width="81" height="79" viewBox="0 0 81 79" fill="none" xmlns="http://www.w3.org/2000/svg">
<g clip-path="url(#clip0_9_4314)">
<g clip-path="url(#clip1_9_4314)">
<path d="M78.9416 9.12251C78.4065 8.59233 77.6996 8.31087 76.9436 8.31251C75.4185 8.33051 74.1765 9.5856 74.1765 11.1107V29.7129C74.1765 32.6043 73.3878 35.4532 71.8954 37.952C71.8561 38.0174 71.8136 38.0763 71.7661 38.132C71.7465 38.1811 71.722 38.2285 71.6958 38.276C71.6794 38.3054 71.6614 38.3316 71.6467 38.3561C71.1214 39.1776 70.5225 39.9532 69.868 40.6651L59.5654 51.8201C59.3069 52.0983 58.955 52.2407 58.6032 52.2407C58.2858 52.2407 57.9667 52.1261 57.7147 51.8921C57.1845 51.4029 57.1518 50.5749 57.641 50.043L67.9436 38.888C68.477 38.3103 68.9663 37.6787 69.3983 37.0111C69.4212 36.9718 69.4458 36.9325 69.4736 36.8932H69.4752C69.503 36.8523 69.5309 36.8147 69.5636 36.7787C69.58 36.7378 69.598 36.6985 69.6192 36.6592C70.151 35.6758 69.9629 34.4829 69.1512 33.6909C68.1138 32.6812 66.4283 32.6763 65.3876 33.6811C65.1438 33.9314 61.138 38.0518 57.754 41.5307C55.2274 44.1292 53.0478 46.3711 53.0396 46.3792C48.8701 50.6894 46.571 56.6147 46.571 63.0587V71.3436H63.959C64.2078 67.0629 65.9063 62.846 68.6096 59.8858L75.7736 52.0443C78.3525 49.2216 79.7729 45.5611 79.7729 41.7385V11.1107C79.7729 10.358 79.4783 9.65106 78.9416 9.12251Z" fill="white"/>
<path d="M39.3365 75.6613C39.2841 75.5124 39.2596 75.352 39.2661 75.1884V75.1868C39.0338 74.3539 38.268 73.7402 37.3614 73.7402H13.0221C11.9323 73.7402 11.0454 74.6271 11.0454 75.717V77.6937H39.3381V75.717C39.3381 75.699 39.3381 75.681 39.3365 75.663V75.6613Z" fill="white"/>
<path d="M67.9778 73.9629H43.7858C42.9382 73.9629 42.2116 74.4767 41.9302 75.2409V75.2426C41.9482 75.3996 41.9564 75.5567 41.9564 75.7187V77.8902H69.9545V75.8644C69.9545 74.7991 69.0856 73.9629 67.9778 73.9629Z" fill="white"/>
<path d="M17.028 71.1228H34.5764V63.0588C34.5764 56.834 32.1611 50.9088 27.7773 46.3744C27.7707 46.3678 27.5269 46.1142 22.1138 40.4655C19.0587 37.2762 15.858 33.938 15.6093 33.6778C14.5686 32.678 12.8847 32.6813 11.8489 33.6926C11.0373 34.4829 10.8491 35.6758 11.3809 36.6593C11.4022 36.6986 11.4202 36.7378 11.4366 36.7788C11.4693 36.8148 11.4971 36.8524 11.5249 36.8933H11.5266C11.5544 36.9326 11.5789 36.9718 11.6018 37.0111C12.0338 37.6788 12.5231 38.3104 13.0566 38.888L23.3591 50.0431C23.8484 50.5749 23.8157 51.4029 23.2855 51.8922C23.0335 52.1262 22.7144 52.2408 22.3969 52.2408C22.0451 52.2408 21.6933 52.0984 21.4347 51.8202L11.1338 40.6651C10.4777 39.9533 9.87875 39.1777 9.35348 38.3562C9.33711 38.3317 9.32075 38.3055 9.30439 38.276C9.2782 38.2286 9.25366 38.1811 9.23402 38.132C9.18657 38.0764 9.14402 38.0158 9.10475 37.952C7.61239 35.4533 6.82366 32.6044 6.82366 29.7129V11.1107C6.82366 9.58565 5.58166 8.33056 4.05493 8.31256C3.30384 8.30765 2.59366 8.59238 2.05857 9.12256C1.52184 9.6511 1.22729 10.358 1.22729 11.1107V41.7386C1.22729 45.5611 2.64766 49.2217 5.22657 52.0444L12.3906 59.8858C15.048 62.7953 16.7335 66.9173 17.028 71.1228Z" fill="white"/>
<path d="M32.0988 15.2157L34.7481 11.2148C34.9968 10.8401 35.4158 10.6143 35.8674 10.629C36.3174 10.6388 36.7298 10.8777 36.9621 11.2639L40.549 17.2317L45.4483 11.1265C45.6823 10.8352 46.0276 10.6585 46.399 10.6388C46.7688 10.6208 47.1338 10.7583 47.3972 11.0234L51.5699 15.2157H56.0928C58.5556 11.5601 58.1023 6.58392 54.9474 3.42902C51.6599 0.14156 46.3974 -0.211895 42.709 2.60756C42.2394 2.96593 41.5881 2.96593 41.1185 2.60756C39.451 1.33283 37.4628 0.707742 35.4796 0.707742C33.0758 0.707742 30.6818 1.62738 28.8801 3.42902C25.7252 6.58392 25.2719 11.5601 27.7347 15.2157H32.0988Z" fill="white"/>
<path d="M53.7234 17.8355H51.0251C50.6765 17.8355 50.3427 17.6964 50.0973 17.4493L46.5742 13.9082L41.4164 20.3359C41.1676 20.6468 40.7913 20.8251 40.3953 20.8251C40.3658 20.8251 40.3364 20.8251 40.3069 20.8235C39.8798 20.794 39.4936 20.5584 39.2727 20.1919L35.7856 14.391L33.894 17.2497C33.6518 17.6146 33.2411 17.8355 32.8025 17.8355H30.1025L41.7665 29.4979C41.814 29.5453 41.8631 29.5944 41.9138 29.6419C41.9645 29.5944 42.0136 29.5453 42.0611 29.4979L53.7234 17.8355Z" fill="white"/>
<path d="M60.1363 17.835C60.8595 17.835 61.4453 17.2492 61.4453 16.5259C61.4453 15.8026 60.8595 15.2168 60.1363 15.2168H59.1037C58.7617 15.927 58.3428 16.6126 57.8486 17.259C57.6964 17.457 57.541 17.6501 57.3806 17.835H60.1363Z" fill="white"/>
<path d="M22.1729 17.835H26.447C26.2867 17.6501 26.1312 17.457 25.979 17.259C25.4849 16.6126 25.066 15.927 24.724 15.2168H22.1729C21.4496 15.2168 20.8638 15.8026 20.8638 16.5259C20.8638 17.2492 21.4496 17.835 22.1729 17.835Z" fill="white"/>
</g>
</g>
<defs>
<clipPath id="clip0_9_4314">
<rect width="80" height="78" fill="white" transform="translate(0.5 0.271484)"/>
</clipPath>
<clipPath id="clip1_9_4314">
<rect width="80" height="78" fill="white" transform="translate(0.5 0.271484)"/>
</clipPath>
</defs>
</svg>
