<svg width="44" height="44" viewBox="0 0 44 44" fill="none" xmlns="http://www.w3.org/2000/svg">
<g clip-path="url(#clip0_9_3980)">
<g clip-path="url(#clip1_9_3980)">
<path d="M31.661 6.01694C31.4589 5.81665 31.1918 5.71032 30.9062 5.71094C30.3301 5.71774 29.8609 6.19189 29.8609 6.76803V13.7956C29.8609 14.8879 29.5629 15.9642 28.9991 16.9081C28.9843 16.9328 28.9682 16.955 28.9503 16.976C28.9429 16.9946 28.9336 17.0126 28.9237 17.0305C28.9175 17.0416 28.9107 17.0514 28.9052 17.0607C28.7067 17.371 28.4805 17.6642 28.2332 17.9331L24.3411 22.1472C24.2435 22.2523 24.1106 22.306 23.9776 22.306C23.8577 22.306 23.7372 22.2628 23.642 22.1744C23.4417 21.9896 23.4293 21.6767 23.6142 21.4758L27.5062 17.2617C27.7078 17.0435 27.8926 16.8049 28.0558 16.5527C28.0644 16.5378 28.0737 16.523 28.0842 16.5082C28.0948 16.4927 28.1059 16.4784 28.1182 16.4648C28.1244 16.4493 28.1312 16.4346 28.1392 16.4198C28.3402 16.0482 28.2691 15.5976 27.9624 15.2984C27.5705 14.917 26.9338 14.9151 26.5406 15.2947C26.4485 15.3891 24.9352 16.9458 23.6568 18.26C22.7023 19.2417 21.8789 20.0886 21.8758 20.0917C20.3007 21.7199 19.4322 23.9585 19.4322 26.3929V29.5226H26.001C26.0949 27.9056 26.7366 26.3125 27.7578 25.1942L30.4642 22.2318C31.4385 21.1654 31.9751 19.7827 31.9751 18.3386V6.76803C31.9751 6.48367 31.8638 6.21661 31.661 6.01694Z" fill="#F74F22"/>
<path d="M16.6992 31.1534C16.6795 31.0972 16.6702 31.0366 16.6727 30.9748C16.5849 30.6602 16.2956 30.4277 15.9531 30.4277H6.75824C6.34653 30.4277 6.01147 30.7627 6.01147 31.1744V31.9212H16.6999V31.1744C16.6999 31.1676 16.6999 31.1602 16.6992 31.1534Z" fill="#F74F22"/>
<path d="M27.5193 30.5117H18.3801C18.0599 30.5117 17.7854 30.7058 17.6791 30.9945C17.6859 31.0538 17.689 31.1138 17.689 31.175V31.9953H28.2661V31.23C28.2661 30.8276 27.9378 30.5117 27.5193 30.5117Z" fill="#F74F22"/>
<path d="M8.27153 29.4393H14.9009V26.3929C14.9009 24.0413 13.9885 21.8029 12.3324 20.0899C12.3299 20.0874 12.2378 19.9916 10.1929 17.8577C9.03869 16.6528 7.82953 15.3917 7.73557 15.2934C7.3424 14.9157 6.70629 14.917 6.31498 15.299C6.00837 15.5976 5.93728 16.0482 6.13818 16.4198C6.14622 16.4346 6.15302 16.4494 6.1592 16.4649C6.17157 16.4785 6.18208 16.4927 6.19258 16.5082C6.20309 16.523 6.21298 16.5378 6.22164 16.5527C6.38484 16.8049 6.56968 17.0435 6.7712 17.2617L10.6633 21.4759C10.8481 21.6768 10.8358 21.9896 10.6355 22.1744C10.5403 22.2628 10.4197 22.3061 10.2998 22.3061C10.1669 22.3061 10.034 22.2523 9.93629 22.1472L6.04484 17.9331C5.79695 17.6642 5.57069 17.3712 5.37226 17.0608C5.36608 17.0515 5.35989 17.0417 5.35371 17.0305C5.34382 17.0126 5.33455 16.9947 5.32713 16.9761C5.3092 16.9551 5.29313 16.9322 5.27829 16.9081C4.71451 15.9642 4.41655 14.8879 4.41655 13.7956V6.76805C4.41655 6.19191 3.94735 5.71776 3.37058 5.71096C3.08684 5.70911 2.81855 5.81667 2.6164 6.01696C2.41364 6.21663 2.30237 6.48369 2.30237 6.76805V18.3386C2.30237 19.7827 2.83895 21.1656 3.8132 22.2319L6.5196 25.1943C7.52353 26.2934 8.16026 27.8506 8.27153 29.4393Z" fill="#F74F22"/>
<path d="M13.965 8.31896L14.9658 6.8075C15.0598 6.66594 15.218 6.58063 15.3886 6.58619C15.5586 6.5899 15.7144 6.68016 15.8022 6.82605L17.1573 9.08056L19.0081 6.77412C19.0965 6.66409 19.2269 6.59732 19.3673 6.5899C19.507 6.5831 19.6448 6.63503 19.7444 6.73518L21.3207 8.31896H23.0294C23.9597 6.93794 23.7885 5.05805 22.5966 3.8662C21.3547 2.62427 19.3666 2.49074 17.9733 3.55587C17.7958 3.69125 17.5498 3.69125 17.3724 3.55587C16.7425 3.0743 15.9914 2.83816 15.2421 2.83816C14.334 2.83816 13.4296 3.18558 12.749 3.8662C11.5572 5.05805 11.3859 6.93794 12.3163 8.31896H13.965Z" fill="#F74F22"/>
<path d="M22.1343 9.30786H21.1149C20.9832 9.30786 20.8571 9.25531 20.7644 9.16196L19.4335 7.82422L17.485 10.2524C17.391 10.3699 17.2488 10.4372 17.0992 10.4372C17.0881 10.4372 17.077 10.4372 17.0658 10.4366C16.9045 10.4255 16.7586 10.3365 16.6751 10.198L15.3578 8.00658L14.6432 9.08655C14.5517 9.2244 14.3965 9.30786 14.2308 9.30786H13.2108L17.6172 13.7136C17.6352 13.7315 17.6537 13.7501 17.6729 13.768C17.692 13.7501 17.7106 13.7315 17.7285 13.7136L22.1343 9.30786Z" fill="#F74F22"/>
<path d="M24.5569 9.30745C24.8302 9.30745 25.0515 9.08614 25.0515 8.8129C25.0515 8.53967 24.8302 8.31836 24.5569 8.31836H24.1668C24.0376 8.58665 23.8794 8.84567 23.6927 9.08985C23.6352 9.16465 23.5765 9.23759 23.5159 9.30745H24.5569Z" fill="#F74F22"/>
<path d="M10.2152 9.30745H11.8298C11.7693 9.23759 11.7105 9.16465 11.653 9.08985C11.4664 8.84567 11.3081 8.58665 11.1789 8.31836H10.2152C9.94189 8.31836 9.72058 8.53967 9.72058 8.8129C9.72058 9.08614 9.94189 9.30745 10.2152 9.30745Z" fill="#F74F22"/>
</g>
</g>
<defs>
<clipPath id="clip0_9_3980">
<rect width="43.0672" height="43.0672" fill="white" transform="translate(0.138672 0.40625)"/>
</clipPath>
<clipPath id="clip1_9_3980">
<rect width="34" height="34" fill="white" transform="translate(0.138672 0.40625)"/>
</clipPath>
</defs>
</svg>
