<svg width="41" height="48" viewBox="0 0 41 48" fill="none" xmlns="http://www.w3.org/2000/svg">
<g clip-path="url(#clip0_9_4386)">
<g clip-path="url(#clip1_9_4386)">
<g clip-path="url(#clip2_9_4386)">
<path d="M39.4962 46.9614L38.1384 46.4799C23.7121 41.2334 14.2182 37.423 8.47044 33.4584C0.16818 27.7319 0.656108 22.2186 1.28866 20.1118C2.34317 16.4274 6.04321 13.796 10.5287 13.5831C13.5956 13.4479 16.9597 14.9315 19.6838 16.8835C17.8996 7.82056 20.7842 2.79043 24.3928 1.12776C28.2115 -0.67444 32.8838 1.02089 35.7442 5.26069C42.0532 14.5603 40.8815 29.5224 39.8324 42.7165L39.4962 46.9614ZM6.03803 17.1723C4.71811 18.0493 3.7473 19.2565 3.35553 20.6844C2.34129 24.1691 4.65268 28.1683 9.69189 31.6523C15.1004 35.3666 24.0052 39.0063 37.533 43.9417L37.635 42.5334C38.6127 30.338 39.8047 15.1463 33.9143 6.47658C31.6718 3.16672 28.1078 1.77273 25.2988 3.07702C22.2299 4.51077 19.6748 9.71124 22.5266 19.535L23.7091 23.5924L20.7269 20.6011C18.2833 18.16 14.0718 15.5963 10.5853 15.7508C8.877 15.8481 7.29796 16.3351 6.03803 17.1723Z" fill="#F74F22"/>
</g>
</g>
</g>
<defs>
<clipPath id="clip0_9_4386">
<rect width="41" height="47" fill="white" transform="translate(0 0.0898438)"/>
</clipPath>
<clipPath id="clip1_9_4386">
<rect width="41" height="47" fill="white" transform="translate(0 0.0898438)"/>
</clipPath>
<clipPath id="clip2_9_4386">
<rect width="41" height="47" fill="white" transform="translate(0 0.0898438)"/>
</clipPath>
</defs>
</svg>
