<svg width="104" height="83" viewBox="0 0 104 83" fill="none" xmlns="http://www.w3.org/2000/svg">
<rect width="84" height="82" transform="translate(20 0.40625)" fill="#F74F22"/>
<path d="M77.75 34.0229C77.3611 33.634 76.8555 33.4396 76.2333 33.4396C75.6111 33.4396 75.0667 33.634 74.6 34.0229L72.9667 35.7729V25.5062C72.9667 24.884 72.7528 24.3785 72.325 23.9896C71.8972 23.6007 71.4111 23.4062 70.8667 23.4062H47.65C47.1055 23.4062 46.6194 23.6007 46.1917 23.9896C45.7639 24.3785 45.55 24.884 45.55 25.5062V56.3063C45.55 56.9285 45.7639 57.434 46.1917 57.8229C46.6194 58.2118 47.1055 58.4062 47.65 58.4062H70.8667C71.4111 58.4062 71.8972 58.2118 72.325 57.8229C72.7528 57.434 72.9667 56.9285 72.9667 56.3063V41.9562L77.75 37.1729C78.2167 36.7062 78.45 36.1812 78.45 35.5979C78.45 35.0146 78.2167 34.4896 77.75 34.0229ZM68.1833 44.8729L66.9 43.5896L73.4333 37.1729L74.6 38.4562L68.1833 44.8729ZM65.7333 44.8729L65.9667 44.6396L67.1333 45.8062L66.9 46.0396L65.15 46.6229L65.7333 44.8729ZM47.65 24.8063H70.8667C71.1 24.8063 71.275 24.8646 71.3917 24.9813C71.5083 25.0979 71.5667 25.2729 71.5667 25.5062V26.0896H63.4C63.1667 26.0896 62.9917 26.1674 62.875 26.3229C62.7583 26.4785 62.7 26.634 62.7 26.7896H55.8167C55.8167 26.634 55.7583 26.4785 55.6417 26.3229C55.525 26.1674 55.35 26.0896 55.1167 26.0896H46.95V25.5062C46.95 25.2729 47.0278 25.0979 47.1833 24.9813C47.3389 24.8646 47.4944 24.8063 47.65 24.8063ZM71.5667 56.3063C71.5667 56.5396 71.5083 56.7146 71.3917 56.8312C71.275 56.9479 71.1 57.0063 70.8667 57.0063H47.65C47.4944 57.0063 47.3389 56.9479 47.1833 56.8312C47.0278 56.7146 46.95 56.5396 46.95 56.3063V55.7229H71.5667V56.3063ZM71.5667 54.3229H46.95V27.4896H54.65C54.8833 27.9562 55.2722 28.1896 55.8167 28.1896H62.7C63.2444 28.1896 63.6333 27.9562 63.8667 27.4896H71.5667V37.0562L64.6833 44.0562C64.6055 44.134 64.5278 44.2118 64.45 44.2896L63.4 47.5562C63.3222 47.7896 63.3805 48.0035 63.575 48.1979C63.7694 48.3924 63.9833 48.4507 64.2167 48.3729L67.4833 47.3229C67.5611 47.2451 67.6389 47.1674 67.7167 47.0896L71.5667 43.3562V54.3229ZM76.8167 36.2396L75.5333 37.4062L74.3667 36.2396L75.65 34.9562C75.8055 34.8007 76 34.7229 76.2333 34.7229C76.4667 34.7229 76.6611 34.8007 76.8167 34.9562C76.9722 35.1118 77.05 35.3062 77.05 35.5396C77.05 35.7729 76.9722 36.0063 76.8167 36.2396ZM49.5167 34.7229H69C69.1555 34.7229 69.3111 34.6646 69.4667 34.5479C69.6222 34.4312 69.7 34.2757 69.7 34.0812C69.7 33.8868 69.6222 33.7313 69.4667 33.6146C69.3111 33.4979 69.1555 33.4396 69 33.4396H49.5167C49.3611 33.4396 49.2055 33.4979 49.05 33.6146C48.8944 33.7313 48.8167 33.8868 48.8167 34.0812C48.8167 34.2757 48.8944 34.4312 49.05 34.5479C49.2055 34.6646 49.3611 34.7229 49.5167 34.7229ZM66.9 36.1229H59.7833C59.55 36.1229 59.375 36.1812 59.2583 36.2979C59.1417 36.4146 59.0833 36.5701 59.0833 36.7646C59.0833 36.959 59.1417 37.134 59.2583 37.2896C59.375 37.4451 59.55 37.5229 59.7833 37.5229H66.9C67.1333 37.5229 67.3083 37.4451 67.425 37.2896C67.5417 37.134 67.6 36.959 67.6 36.7646C67.6 36.5701 67.5417 36.4146 67.425 36.2979C67.3083 36.1812 67.1333 36.1229 66.9 36.1229ZM64.9167 38.8062H52.6667C52.4333 38.8062 52.2583 38.884 52.1417 39.0396C52.025 39.1951 51.9667 39.3701 51.9667 39.5646C51.9667 39.759 52.025 39.9146 52.1417 40.0312C52.2583 40.1479 52.4333 40.2062 52.6667 40.2062H64.9167C65.0722 40.2062 65.2083 40.1479 65.325 40.0312C65.4417 39.9146 65.5 39.759 65.5 39.5646C65.5 39.3701 65.4417 39.1951 65.325 39.0396C65.2083 38.884 65.0722 38.8062 64.9167 38.8062ZM49.5167 41.6063C49.3611 41.6063 49.2055 41.6646 49.05 41.7812C48.8944 41.8979 48.8167 42.0535 48.8167 42.2479C48.8167 42.4424 48.8944 42.6174 49.05 42.7729C49.2055 42.9285 49.3611 43.0063 49.5167 43.0063H55.5833C55.8167 43.0063 55.9917 42.9285 56.1083 42.7729C56.225 42.6174 56.2833 42.4424 56.2833 42.2479C56.2833 42.0535 56.225 41.8979 56.1083 41.7812C55.9917 41.6646 55.8167 41.6063 55.5833 41.6063H49.5167ZM60.6 44.2896H49.5167C49.3611 44.2896 49.2055 44.3674 49.05 44.5229C48.8944 44.6785 48.8167 44.8535 48.8167 45.0479C48.8167 45.2424 48.8944 45.3979 49.05 45.5146C49.2055 45.6313 49.3611 45.6896 49.5167 45.6896H60.6C60.8333 45.6896 61.0083 45.6313 61.125 45.5146C61.2417 45.3979 61.3 45.2424 61.3 45.0479C61.3 44.8535 61.2417 44.6785 61.125 44.5229C61.0083 44.3674 60.8333 44.2896 60.6 44.2896ZM58.6167 47.0896H49.5167C49.3611 47.0896 49.2055 47.1479 49.05 47.2646C48.8944 47.3813 48.8167 47.5368 48.8167 47.7312C48.8167 47.9257 48.8944 48.0813 49.05 48.1979C49.2055 48.3146 49.3611 48.3729 49.5167 48.3729H58.6167C58.7722 48.3729 58.9278 48.3146 59.0833 48.1979C59.2389 48.0813 59.3167 47.9257 59.3167 47.7312C59.3167 47.5368 59.2389 47.3813 59.0833 47.2646C58.9278 47.1479 58.7722 47.0896 58.6167 47.0896ZM49.5167 37.5229H55.5833C55.8167 37.5229 55.9917 37.4451 56.1083 37.2896C56.225 37.134 56.2833 36.959 56.2833 36.7646C56.2833 36.5701 56.225 36.4146 56.1083 36.2979C55.9917 36.1812 55.8167 36.1229 55.5833 36.1229H49.5167C49.3611 36.1229 49.2055 36.1812 49.05 36.2979C48.8944 36.4146 48.8167 36.5701 48.8167 36.7646C48.8167 36.959 48.8944 37.134 49.05 37.2896C49.2055 37.4451 49.3611 37.5229 49.5167 37.5229ZM49.5167 40.2062C49.75 40.2062 49.925 40.1479 50.0417 40.0312C50.1583 39.9146 50.2167 39.759 50.2167 39.5646C50.2167 39.3701 50.1583 39.1951 50.0417 39.0396C49.925 38.884 49.75 38.8062 49.5167 38.8062C49.3611 38.8062 49.2055 38.884 49.05 39.0396C48.8944 39.1951 48.8167 39.3701 48.8167 39.5646C48.8167 39.759 48.8944 39.9146 49.05 40.0312C49.2055 40.1479 49.3611 40.2062 49.5167 40.2062Z" fill="white"/>
<mask id="mask0_9_3973" style="mask-type:alpha" maskUnits="userSpaceOnUse" x="0" y="57" width="20" height="26">
<g clip-path="url(#clip0_9_3973)">
<path d="M20 57.4062H0L20 82.4062V57.4062Z" fill="black"/>
</g>
</mask>
<g mask="url(#mask0_9_3973)">
<rect y="57.4062" width="20" height="25" fill="#CE3810"/>
</g>
<defs>
<clipPath id="clip0_9_3973">
<rect width="20" height="25" fill="white" transform="translate(0 57.4062)"/>
</clipPath>
</defs>
</svg>
