<svg width="15" height="15" viewBox="0 0 15 15" fill="none" xmlns="http://www.w3.org/2000/svg">
<path d="M11.2966 3.02391C10.9544 3.02391 10.7133 3.16391 10.5733 3.44391C10.4333 3.72392 10.4333 4.00391 10.5733 4.28391C10.7133 4.56391 10.9544 4.70391 11.2966 4.70391C11.6388 4.70391 11.8799 4.56391 12.0199 4.28391C12.1599 4.00391 12.1599 3.72392 12.0199 3.44391C11.8799 3.16391 11.6388 3.02391 11.2966 3.02391ZM7.74994 4.05058C7.12772 4.05058 6.55994 4.19836 6.04661 4.49391C5.53327 4.78947 5.12883 5.20169 4.83327 5.73058C4.53772 6.25947 4.38994 6.81947 4.38994 7.41058C4.42105 8.28169 4.66994 8.99725 5.13661 9.55725C5.57216 10.0861 6.11661 10.4439 6.76994 10.6306C7.42327 10.8172 8.07661 10.8172 8.72994 10.6306C9.38327 10.4439 9.92772 10.0861 10.3633 9.55725C10.8299 8.99725 11.0788 8.28169 11.1099 7.41058C11.1099 6.81947 10.9622 6.25947 10.6666 5.73058C10.3711 5.20169 9.96661 4.78947 9.45327 4.49391C8.93994 4.19836 8.37216 4.05058 7.74994 4.05058ZM7.74994 9.60392C7.15883 9.60392 6.6455 9.39392 6.20994 8.97392C5.77439 8.55392 5.55661 8.0328 5.55661 7.41058C5.58772 6.72614 5.82105 6.19725 6.25661 5.82391C6.69216 5.45058 7.18994 5.26392 7.74994 5.26392C8.30994 5.26392 8.80772 5.45058 9.24327 5.82391C9.67883 6.19725 9.91216 6.72614 9.94327 7.41058C9.94327 8.0328 9.7255 8.55392 9.28994 8.97392C8.85439 9.39392 8.34105 9.60392 7.74994 9.60392ZM14.3766 4.65725C14.3455 3.50614 13.9799 2.58058 13.2799 1.88058C12.5799 1.18058 11.6544 0.815026 10.5033 0.783916C10.2233 0.783916 9.3055 0.776137 7.74994 0.760582C6.19439 0.745027 5.27661 0.752804 4.99661 0.783916C3.8455 0.815026 2.91994 1.18058 2.21994 1.88058C1.51994 2.58058 1.15439 3.50614 1.12327 4.65725C1.12327 4.93725 1.1155 5.85503 1.09994 7.41058C1.08439 8.96614 1.09216 9.88391 1.12327 10.1639C1.15439 11.315 1.51994 12.2406 2.21994 12.9406C2.91994 13.6406 3.8455 14.0061 4.99661 14.0372C5.58772 14.0684 6.5055 14.0761 7.74994 14.0606C8.99439 14.045 9.91994 14.0295 10.5266 14.0139C11.1333 13.9984 11.6544 13.8972 12.0899 13.7106C12.8366 13.4306 13.3966 12.9795 13.7699 12.3572C14.1433 11.735 14.3455 11.0039 14.3766 10.1639C14.3766 9.88391 14.3844 8.96614 14.3999 7.41058C14.4155 5.85503 14.4077 4.93725 14.3766 4.65725ZM10.4566 12.8239C10.1766 12.855 9.27439 12.8706 7.74994 12.8706C6.2255 12.8706 5.32327 12.855 5.04327 12.8239C4.57661 12.7928 4.17216 12.715 3.82994 12.5906C3.33216 12.3728 2.97439 12.085 2.75661 11.7272C2.53883 11.3695 2.39883 10.9261 2.33661 10.3972C2.3055 10.055 2.29772 9.52614 2.31327 8.81058C2.32883 8.09503 2.33661 7.55058 2.33661 7.17725V4.70391C2.36772 3.8328 2.60883 3.17169 3.05994 2.72058C3.51105 2.26947 4.17216 2.02836 5.04327 1.99725C5.32327 1.96614 6.2255 1.95058 7.74994 1.95058C9.27439 1.95058 10.1766 1.96614 10.4566 1.99725C11.3588 2.02836 12.0277 2.26947 12.4633 2.72058C12.8988 3.17169 13.1322 3.8328 13.1633 4.70391C13.1944 4.9528 13.2099 5.52836 13.2099 6.43058C13.2099 7.39503 13.1944 8.15725 13.1633 8.71725C13.1944 9.61947 13.1633 10.2884 13.0699 10.7239C12.9766 11.3772 12.7433 11.8595 12.3699 12.1706C11.9344 12.575 11.2966 12.7928 10.4566 12.8239Z" fill="white"/>
</svg>
