<svg width="67" height="66" viewBox="0 0 67 66" fill="none" xmlns="http://www.w3.org/2000/svg">
<rect x="0.890015" y="0.5" width="65" height="65" rx="32.5" stroke="#F74F22"/>
<path d="M39.99 33.4492C39.9233 33.4492 39.8567 33.4492 39.79 33.4492H29.24L29.44 33.3492C29.6733 33.2159 29.8733 33.0659 30.04 32.8992L33.04 29.9492C33.24 29.7492 33.3483 29.5159 33.365 29.2492C33.3817 28.9826 33.315 28.7326 33.165 28.4992C33.015 28.2659 32.79 28.1242 32.49 28.0742C32.19 28.0242 31.9233 28.0992 31.69 28.2992L26.19 33.7492C25.99 33.9492 25.89 34.1992 25.89 34.4992C25.89 34.7992 25.99 35.0492 26.19 35.2492L31.59 40.5992C31.79 40.8326 32.04 40.9492 32.34 40.9492C32.64 40.9492 32.89 40.8326 33.09 40.5992L33.19 40.4992C33.3233 40.2659 33.3817 40.0159 33.365 39.7492C33.3483 39.4826 33.24 39.2659 33.04 39.0992L30.04 36.0992C29.9067 35.9659 29.74 35.8326 29.54 35.6992L29.19 35.5992H39.74C40.0067 35.5992 40.2483 35.5159 40.465 35.3492C40.6817 35.1826 40.815 34.9576 40.865 34.6742C40.915 34.3909 40.8567 34.1242 40.69 33.8742C40.5233 33.6242 40.29 33.4826 39.99 33.4492Z" fill="#F74F22"/>
</svg>
