<svg width="15" height="15" viewBox="0 0 15 15" fill="none" xmlns="http://www.w3.org/2000/svg">
<path d="M13.35 13.0098V8.9031C13.35 7.75199 13.1789 6.91199 12.8367 6.3831C12.4011 5.69865 11.6389 5.35643 10.55 5.35643C10.0211 5.35643 9.55447 5.48088 9.15002 5.72977C8.8078 5.94754 8.54336 6.22754 8.35669 6.56977V5.5431H6.11669V13.0098H8.45002V9.27643C8.45002 8.71643 8.5278 8.28088 8.68336 7.96977C8.90114 7.56532 9.27447 7.3631 9.80336 7.3631C10.3322 7.3631 10.69 7.59643 10.8767 8.0631C10.97 8.31199 11.0167 8.74754 11.0167 9.36977V13.0098H13.35ZM2.33669 5.5431H4.67002V13.0098H2.33669V5.5431ZM3.50336 1.80977C3.13002 1.80977 2.81114 1.94199 2.54669 2.20643C2.28225 2.47088 2.15002 2.78977 2.15002 3.1631C2.15002 3.53643 2.28225 3.85532 2.54669 4.11977C2.81114 4.38421 3.13002 4.51643 3.50336 4.51643C3.87669 4.51643 4.19558 4.38421 4.46002 4.11977C4.72447 3.85532 4.85669 3.53643 4.85669 3.1631C4.85669 2.78977 4.72447 2.47088 4.46002 2.20643C4.19558 1.94199 3.87669 1.80977 3.50336 1.80977Z" fill="white"/>
</svg>
