<svg width="635" height="577" viewBox="0 0 635 577" fill="none" xmlns="http://www.w3.org/2000/svg">
<path d="M631.961 264.771C631.361 260.975 628.884 262.264 628.884 259.113C627.082 259.9 625.656 258.396 624.005 258.181C623.554 256.104 623.104 254.098 622.579 252.236C621.903 251.949 621.228 251.734 620.552 251.448C620.552 250.732 620.552 250.158 620.552 249.585C621.678 245.144 620.177 246.075 621.303 243.712C621.528 242.852 621.828 242.064 622.053 241.204C622.729 241.276 623.404 241.133 624.005 241.061L625.431 241.634C626.107 239.27 627.308 240.488 627.758 237.265C628.133 234.399 626.557 234.757 625.656 235.545C625.131 235.331 624.53 235.116 623.93 234.901C623.855 234.471 623.78 234.113 623.63 233.826C622.804 231.462 621.678 231.964 621.978 230.603C622.278 228.812 622.429 227.021 622.579 225.445C622.879 223.153 620.177 225.66 622.128 221.72C622.278 219.93 621.228 220.861 620.702 221.147C620.477 220.144 620.252 219.07 620.027 218.067C617.85 217.422 616.874 216.133 614.172 219.357C614.022 219.142 613.947 218.712 613.872 218.497C613.571 215.417 613.421 212.122 613.121 209.256L613.872 206.749L614.097 205.89C614.397 201.305 614.622 198.798 613.196 199.371C612.521 200.016 611.845 201.448 611.319 201.305C610.494 200.804 609.743 200.159 608.917 199.443C608.692 197.294 608.542 195.216 608.317 192.996C607.566 194.357 606.741 195.933 605.99 197.509C605.465 196.936 605.014 196.363 604.489 196.004C605.315 192.566 606.516 189.844 608.392 188.483C608.767 186.764 609.143 185.188 609.593 183.469L606.441 182.251C607.942 180.603 609.518 178.956 611.094 177.308C615.973 176.091 619.726 171.005 615.073 170.79C613.721 172.652 612.37 174.515 611.019 176.449C610.344 175.159 609.893 174.156 609.218 173.082C610.194 170.718 611.32 168.354 612.37 166.062C611.32 164.271 611.92 161.334 609.218 160.833C607.266 162.122 604.714 161.478 602.913 159.973C600.586 157.036 599.535 159.472 598.709 159.257C598.634 159.185 598.559 159.185 598.484 159.114C597.508 158.97 596.457 158.684 595.632 158.397C592.854 156.75 590.002 155.031 587.225 153.383C585.799 151.521 584.598 149.443 581.895 148.512C579.043 148.226 576.341 147.438 573.639 146.578C570.936 145.718 568.234 144.859 565.457 144.572C562.379 144.286 559.452 144.787 556.299 145.217C556.074 145.074 555.699 144.93 555.098 144.787L556.074 143.713C556.074 143.569 556.149 143.498 556.149 143.355C557.5 142.638 555.549 142.567 554.948 142.423L554.798 142.28C554.873 142.065 554.948 141.85 554.948 141.635C557.951 140.776 557.726 140.418 556.299 139.988C556.299 139.988 556.3 139.916 556.375 139.845C556.975 139.63 557.576 139.415 558.251 139.2C557.651 138.842 562.229 138.913 559.452 138.412C558.626 137.767 558.927 136.908 559.227 136.191C559.527 135.475 559.827 134.759 559.002 134.257C559.527 133.899 559.977 133.541 560.353 133.183C564.031 133.541 560.953 132.753 561.554 132.538C560.728 131.392 561.028 130.461 561.779 129.601C563.881 130.246 565.832 130.819 568.009 131.32C569.811 130.604 571.537 130.103 573.263 129.386C574.539 129.171 575.74 129.171 577.016 128.956C582.496 130.103 586.549 131.822 589.176 126.163C590.978 125.303 592.779 124.229 594.731 123.441C598.409 122.438 597.883 119.573 598.484 117.639C597.433 116.564 596.307 115.633 595.181 114.558C594.956 113.985 594.731 113.341 594.656 112.624C595.106 110.619 595.632 108.613 596.232 106.679C596.607 105.246 597.058 103.813 597.583 102.381C599.009 101.091 600.285 99.802 601.862 98.5127C601.712 92.7104 605.84 86.7649 599.16 85.4039C598.184 84.6876 597.358 84.0429 596.457 83.3266C596.607 79.8166 596.833 76.0917 597.133 72.5817C598.034 69.5015 598.934 66.2781 599.835 63.0546C603.888 59.6879 604.864 53.0977 600.285 55.1034C599.985 57.4673 599.61 59.9028 599.31 62.2667C598.034 61.3354 596.983 60.6191 595.857 59.9028C595.557 57.2524 595.482 54.4587 595.407 51.8083C593.53 50.5906 592.704 47.5104 589.927 48.2267C588.726 50.304 585.949 50.8771 583.547 50.1608C579.944 48.2983 580.094 51.092 579.193 51.2353C579.118 51.2353 578.968 51.2353 578.893 51.1636C577.917 51.3785 576.791 51.6651 575.815 51.6651C572.438 51.2353 568.835 50.7338 565.457 50.304C563.28 49.0863 561.254 47.5104 558.251 47.6536C552.546 49.3012 546.316 48.5849 540.687 49.9459C534.231 51.5934 529.728 56.6077 520.27 57.1808C519.444 57.4673 518.619 57.7538 517.868 57.8254C517.268 57.5389 513.064 56.3928 506.984 54.8885C501.129 53.3842 493.548 51.5218 485.967 49.731C486.042 49.5877 486.117 49.4445 486.192 49.3012C476.734 43.3557 466.976 37.5535 456.693 32.181C446.41 26.8086 435.751 21.7227 424.567 17.1382C420.213 20.7199 416.235 23.1554 414.208 19.5021C410.23 24.6596 407.002 18.356 402.123 19.6454C401.673 17.7829 401.072 16.2787 400.472 14.6311C399.421 14.3446 398.445 13.9864 396.869 13.5566C396.193 14.846 395.593 15.9205 394.992 17.3531C395.968 18.2127 397.094 19.0723 398.145 20.0035C397.62 21.6511 397.094 23.1554 396.569 24.8745C395.443 24.5164 394.617 24.3015 393.641 23.9433C393.191 22.8688 392.966 21.3646 391.915 20.8631C389.888 20.4333 387.787 20.1468 385.685 19.7886C384.709 19.8603 385.084 22.0092 384.109 21.1497C380.581 21.866 384.034 16.207 382.532 14.5595C380.205 17.3531 378.254 15.7772 376.377 15.7056C374.876 16.7801 373.675 17.9978 372.399 19.1439C369.922 18.0695 367.82 18.7142 365.794 20.2184C364.893 20.0035 364.142 19.8603 363.241 19.717C362.491 18.1411 361.815 16.6368 360.84 15.0609C360.464 12.4821 360.089 9.7601 359.488 7.18134C358.062 6.39338 356.636 5.67706 355.285 4.6742C353.709 3.67135 348.83 2.81176 342.374 1.88054C339.147 1.52238 335.469 1.23585 331.566 0.949317C327.662 0.73442 323.534 0.662788 319.406 0.519523C315.277 0.44789 311.074 0.591155 307.171 0.662788C303.192 0.73442 299.439 1.02095 296.062 1.09258C292.684 1.16421 289.681 1.37911 287.354 1.37911C284.952 1.37911 283.226 1.23585 282.25 0.877685C278.947 2.16707 279.398 8.90052 273.468 7.46787C272.642 7.25297 271.892 7.03807 271.141 7.03807C269.79 6.39338 268.589 5.74869 267.088 5.31889C266.187 5.53379 265.361 5.74869 263.56 6.10685C264.085 7.96929 264.536 9.83174 265.061 11.6942C261.909 13.3417 258.756 14.9176 255.678 16.7084C255.528 16.7801 255.228 16.8517 255.153 16.8517C254.477 16.7084 253.952 16.4936 253.502 16.4219C248.548 14.9893 250.875 17.2099 249.749 18.4276L249.298 19.6454C245.996 19.2156 242.768 18.6425 239.54 18.0695C231.434 16.4936 223.477 14.4162 215.596 13.6999C213.719 12.1956 209.891 11.6225 206.513 10.9062C205.537 11.2644 204.487 11.6225 203.511 11.8374C200.734 14.2729 198.031 16.5652 195.254 19.0007L187.673 20.6482C186.772 21.3646 185.646 21.9376 184.745 22.5107C178.816 24.9462 178.891 29.6023 178.816 33.1123C178.816 33.8286 178.816 34.4016 178.891 34.9747C177.464 35.9059 175.963 36.8372 174.387 37.6251C171.685 35.4045 168.907 38.4131 166.28 38.628C166.506 41.0635 166.881 43.4273 167.106 45.8628C165.68 45.5047 164.104 45.1465 162.677 44.9316C162.077 45.5047 161.627 46.0777 161.176 46.5792C161.251 48.2267 161.251 49.5161 161.326 51.0204C163.503 51.3785 165.905 51.7367 168.082 51.88C172.21 55.3899 177.164 53.0977 179.416 56.2495C182.944 54.7453 187.523 55.6048 191.351 55.2467C193.903 57.1091 196.38 58.9716 198.932 60.6191C200.658 60.6191 202.535 60.6191 204.186 60.6191C204.637 61.3354 205.162 61.9085 205.612 62.4816C206.138 67.2809 209.065 65.8483 208.014 68.5703C208.014 69.5015 208.014 70.4328 208.014 71.364C206.438 71.5072 204.937 71.937 203.511 72.2952H199.833C199.908 74.874 196.305 74.1576 197.581 77.4527C198.707 80.3897 202.085 79.5301 203.586 78.3839C204.937 78.3839 206.513 78.3839 208.09 78.3839C208.54 78.7421 208.99 79.1003 209.516 79.3152C213.119 81.3925 215.37 80.4613 215.521 81.8939C216.121 83.7564 216.947 85.6188 217.697 87.2664C218.673 89.7019 223.102 86.1919 221.45 90.848C222.426 92.7104 224.078 91.421 225.128 90.9196C226.329 91.8508 227.605 92.7821 228.806 93.7133C229.407 93.7133 229.932 93.7133 230.383 93.7133C230.083 93.9282 229.707 94.0714 229.407 94.2863C227.906 93.2835 226.48 93.6417 225.053 94.2863C223.627 94.931 222.351 95.7906 220.925 96.0772C221.45 98.2978 222.051 100.518 222.576 102.739C221.075 102.596 219.424 102.452 217.998 102.452C217.472 103.026 217.022 103.599 216.647 104.172C216.647 104.315 216.722 104.53 216.722 104.673C215.596 104.745 214.395 104.888 213.269 104.96C204.036 105.676 194.278 106.392 186.172 106.894C178.065 107.395 171.61 107.61 169.358 106.894C167.331 107.538 166.205 109.616 164.704 111.263C163.203 112.982 161.326 114.2 157.573 113.484C156.597 113.269 155.547 113.054 154.571 113.054C152.919 112.409 151.418 111.765 149.542 111.335C148.416 111.478 147.215 111.693 144.888 112.123C145.263 113.985 145.563 115.919 145.939 117.782L139.258 120.361L132.503 123.154C132.278 123.226 131.902 123.297 131.752 123.297C130.926 123.154 130.251 122.939 129.575 122.868C123.12 121.507 125.822 123.799 124.096 125.16L122.745 127.166C122.069 127.882 121.619 128.527 121.243 129.386C118.766 130.174 116.515 131.32 114.038 132.395C110.96 132.968 108.108 133.469 105.105 134.329C103.229 135.905 101.352 137.337 99.4756 138.913C98.0495 139.845 96.5483 140.633 95.1221 141.564C87.8411 143.999 81.9113 145.862 82.2866 151.879C80.7103 153.741 79.2841 155.962 77.7078 158.039C74.255 161.478 76.732 163.197 77.4076 165.059C79.2841 165.059 81.0105 164.916 82.812 164.916C83.4125 165.202 84.013 165.489 84.5384 165.99C85.3641 167.781 85.9646 169.644 86.5651 171.506C87.0905 172.795 87.4658 174.228 87.9162 175.589C87.3157 177.523 86.9404 179.314 86.2648 181.248C87.9913 183.111 88.9671 185.546 90.168 187.337C90.0179 187.337 89.7927 187.337 89.6426 187.337C83.7878 187.623 78.0081 188.053 76.2817 186.262C75.3059 187.194 76.657 193.712 74.1049 191.492C73.8046 191.205 73.4293 190.847 73.1291 190.704C72.5286 189.916 71.9281 189.056 71.3276 188.411C71.0274 188.411 70.7271 188.483 70.1266 188.555C70.577 190.417 71.1024 192.279 71.5528 194.142L68.6254 197.079C68.5503 197.079 68.4753 197.079 68.4002 197.079C68.1 196.792 67.8748 196.434 67.6496 196.291C65.4728 193.784 66.6738 196.434 66.4486 197.294C66.4486 197.795 66.4486 198.368 66.4486 198.87C66.3736 199.371 66.3736 199.944 66.4486 200.589C65.8481 200.804 65.3227 201.234 64.7973 201.663C63.9716 201.448 63.1459 201.162 62.3953 201.09C62.0951 202.021 61.7198 202.738 61.4195 203.669C61.1193 204.027 60.819 204.314 60.5188 204.672C58.6422 204.6 56.9158 203.741 57.9667 209.185C57.7415 210.259 57.5914 211.477 57.2911 212.551C56.6156 214.056 57.6664 216.491 58.1919 218.354C58.8674 219.142 59.3929 219.786 60.0684 220.574C60.2936 221.076 60.5938 221.577 60.819 222.222C61.3444 224.084 61.7948 225.947 62.3202 227.809C62.6956 229.17 62.9958 230.531 63.3711 231.821C63.4462 233.182 63.5212 234.614 63.5212 235.975C65.3978 241.133 66.3736 247.078 68.4002 247.222C68.8506 247.651 69.301 248.153 69.6763 248.654C70.7271 251.806 71.853 255.173 72.9039 258.325C73.6545 261.19 74.4802 264.198 75.3059 267.279C75.3809 269.499 76.1316 272.723 76.8071 274.227C76.5819 274.37 76.3567 274.442 76.2066 274.585C73.5795 274.728 69.6763 276.806 66.2234 278.597C65.6229 279.528 64.7973 280.531 64.0467 281.39C63.0709 285.187 62.2452 288.768 61.4946 292.493C59.7682 294.642 58.1168 296.934 56.4655 299.155C56.2403 300.373 55.7148 301.519 55.4146 302.593C52.4872 308.682 55.94 311.619 58.342 313.983C58.8674 314.484 59.3178 314.843 59.6931 315.201C59.3929 316.848 58.9425 318.567 58.4171 320.143C54.8892 320.716 55.1894 324.656 53.6131 326.733C55.5647 328.023 57.5914 329.241 59.543 330.602C58.342 331.39 57.0659 332.321 56.0901 333.252C56.1652 334.04 56.2403 334.685 56.3904 335.401C57.6664 336.332 58.7173 337.12 59.8432 337.98C61.4946 336.619 63.221 335.186 64.7222 333.753C65.2476 333.682 65.698 333.539 66.1484 333.467C66.3736 333.897 66.6738 334.398 66.5987 334.828L66.9741 336.404C67.0491 336.977 67.1242 337.478 67.3494 338.195C66.6738 338.768 66.1484 339.412 65.5479 340.129C64.422 340.344 63.3711 340.487 62.3202 340.845C62.1701 341.92 61.9449 342.851 61.7948 343.925C61.4946 344.498 61.1193 344.857 60.8941 345.43C58.4171 346.361 56.0902 346.576 58.8674 351.447C58.8674 352.664 59.0175 354.025 58.9425 355.243C58.4921 357.106 60.5188 359.04 61.6447 360.616C62.6205 361.045 63.5963 361.332 64.5721 361.762C65.0225 362.12 65.4728 362.478 65.9983 362.979C67.1242 364.555 68.2501 366.131 69.376 367.707C70.2017 368.853 70.9523 370 71.778 371.217C72.2284 372.578 72.7538 373.868 73.1291 375.3C73.4293 375.658 73.8046 376.017 74.1049 376.446C74.0298 376.59 73.9548 376.733 73.8797 376.876C72.0782 376.876 70.3518 377.091 68.4753 377.306C66.4486 376.661 64.497 375.945 62.4704 375.515C60.819 376.446 59.1677 377.163 57.5914 377.951C56.4655 378.237 55.3395 378.237 54.2136 378.524C49.1845 377.306 45.5065 375.444 42.9544 382.105C41.303 383.18 39.5766 384.469 37.7001 385.472C34.2473 386.69 34.6226 390.057 34.0221 392.42C34.9979 393.638 35.9737 394.713 36.9495 395.93C37.1747 396.647 37.3248 397.291 37.3999 398.223C36.9495 400.586 36.349 402.95 35.6734 405.243C35.2981 406.962 34.7727 408.609 34.2473 410.329C32.8211 411.904 31.6201 413.48 30.0438 414.985C30.0438 415.844 29.9688 416.704 29.8186 417.563C28.993 418.136 28.1673 418.638 27.4167 419.068C22.3125 420.858 21.2616 426.231 20.3609 430.314C20.2108 431.174 20.0607 431.818 19.9105 432.463C18.5594 433.251 17.0582 434.039 15.632 434.612C14.0557 431.532 11.0533 434.397 8.87652 434.039C8.35109 436.833 7.90072 439.698 7.37529 442.491C6.32443 441.775 5.19851 440.987 4.07259 440.414C3.39704 440.916 2.87161 441.417 2.27112 441.99C1.74569 443.924 1.37038 445.357 0.920013 447.076C2.64642 448.007 4.52296 449.01 6.32443 449.726C7.60048 452.162 9.47701 453.021 11.2034 453.809C12.9298 454.526 14.4311 455.17 15.0315 457.176C18.5594 456.173 22.3876 458.107 26.0656 458.251C26.6661 459.11 27.3416 459.898 28.0172 460.758C26.4409 464.339 26.8162 467.778 30.1189 466.059C30.194 465.271 30.3441 464.554 30.4191 463.766C30.9446 464.411 31.47 465.056 32.0705 465.7C33.0463 465.844 34.0221 465.987 34.9979 466.13C34.9979 467.348 35.073 468.637 35.073 469.855C36.7243 471.073 37.55 473.866 39.5766 474.081C39.8769 474.583 40.027 475.156 39.4265 476.302C39.2764 477.376 39.2013 478.451 39.0512 479.525C37.4749 479.525 35.8986 479.74 34.4725 479.955L30.7944 479.382C30.3441 482.391 26.9663 480.958 27.6419 485.041C28.2424 488.694 31.7702 488.193 33.4967 487.118C34.9228 487.333 36.4241 487.548 38.0003 487.763C38.4507 488.265 38.826 488.766 39.2764 489.053C42.5791 491.918 45.0561 491.13 44.9811 492.921C45.3564 495.141 45.9569 497.434 46.4823 499.511C47.1578 502.448 52.1119 498.866 49.8601 504.095C50.6107 506.388 52.4872 505.027 53.6882 504.525C54.8892 505.743 56.0151 506.961 57.2161 508.25C62.9207 508.68 65.9983 510.041 70.4269 505.456C70.8773 505.743 71.3276 506.173 71.778 506.459C74.3301 510.184 76.732 514.196 79.3592 517.706C79.2841 518.78 79.2091 519.854 79.134 521.001C79.134 521.216 79.0589 521.645 79.0589 522.075C81.1607 527.734 82.4367 530.957 85.289 529.883C86.415 528.88 87.1656 526.946 88.4416 527.089C90.6935 527.519 92.8702 528.164 95.1221 528.809C96.9236 531.459 98.5749 533.894 100.376 536.545C101.277 534.682 102.178 532.533 102.928 530.456C104.43 531.029 105.931 531.602 107.282 531.96C107.432 536.402 106.381 539.983 102.928 542.061C103.079 544.281 103.229 546.287 103.229 548.436C131.001 551.086 158.699 554.095 186.322 557.39C189.925 551.659 193.678 547.505 197.131 551.229C200.133 543.708 205.612 550.513 210.717 547.648C211.692 549.725 212.743 551.444 213.794 553.307C214.995 553.45 216.196 553.593 217.998 553.808C218.448 552.089 218.973 550.585 219.274 548.651C217.998 547.791 216.571 547.003 215.145 546.144C215.37 543.995 215.596 541.989 215.821 539.84C217.172 539.983 218.223 540.126 219.424 540.27C220.249 541.487 220.775 543.35 222.126 543.708C224.528 543.78 227.005 543.708 229.482 543.78C230.608 543.493 229.782 540.986 231.058 541.774C235.037 540.341 231.959 547.863 233.836 549.654C236.087 545.785 238.489 547.433 240.666 547.218C242.242 545.642 243.443 544.066 244.87 542.49C247.797 543.565 250.199 542.562 252.451 540.413C253.502 540.556 254.402 540.7 255.453 540.843C256.429 542.705 257.33 544.639 258.456 546.573C258.981 549.725 259.507 553.092 260.182 556.315C261.758 557.175 263.335 558.106 264.836 559.181C266.637 560.327 271.817 561.473 278.722 562.619C285.628 563.837 294.26 565.055 302.892 566.416C320.081 569.066 337.195 572.074 340.348 575.011C343.951 574.51 345.977 566.416 351.232 570.427C351.907 571 352.583 571.573 353.333 571.86C354.384 573.149 355.285 574.367 356.486 575.513C357.387 575.656 358.287 575.799 360.089 576.086C360.464 573.722 360.84 571.358 361.14 568.923L372.399 567.562C372.549 567.562 372.849 567.633 372.999 567.633C373.525 568.135 373.9 568.708 374.351 568.994C378.104 573.221 377.203 569.496 378.854 568.636L380.506 566.917C381.181 566.344 381.782 565.842 382.307 565.055C384.259 565.198 386.135 565.055 388.162 564.983C390.339 565.842 392.365 566.63 394.542 567.275C396.344 566.487 398.145 565.914 399.946 565.126C401.223 564.911 402.424 564.911 403.7 564.696C409.179 566.129 413.082 568.206 416.01 561.616C417.886 560.613 419.763 559.396 421.789 558.464C425.542 557.39 425.167 553.952 425.843 551.659C424.867 550.37 423.741 549.295 422.765 548.006C422.54 547.29 422.39 546.573 422.39 545.714C422.915 543.35 423.666 541.058 424.341 538.765C424.792 537.046 425.392 535.399 425.993 533.751C427.494 532.247 428.845 530.743 430.497 529.238C430.722 522.362 435.225 515.413 428.62 513.766C427.644 512.906 426.894 512.118 426.068 511.259C426.293 508.823 426.518 506.244 426.818 503.737C428.995 501.445 429.821 498.15 430.647 495.499C430.872 494.64 431.022 493.995 431.172 493.351C432.598 492.634 434.175 491.918 435.751 491.488C437.327 494.64 440.555 491.989 442.882 492.348C443.482 489.554 444.083 486.76 444.683 483.967C445.809 484.755 447.01 485.543 448.136 486.044C448.887 485.543 449.412 485.041 450.012 484.54C450.538 482.677 450.988 481.173 451.514 479.525C449.712 478.594 447.836 477.591 445.959 476.803C443.557 471.789 438.453 473.079 437.402 468.924C435.601 469.354 433.799 468.995 431.923 468.422C430.121 467.921 428.245 467.205 426.443 467.061C424.717 464.411 422.84 461.761 421.039 459.325C419.463 458.967 417.736 458.609 416.16 458.251C415.935 457.319 415.634 456.531 415.334 455.815C416.01 450.156 412.932 451.231 414.583 448.222C414.809 447.219 414.959 446.216 415.184 445.285C419.913 446.431 424.492 447.506 429.07 447.936C430.572 449.297 433.574 449.798 436.201 450.443C436.877 450.085 437.777 449.726 438.453 449.511C440.48 447.148 442.431 444.927 444.533 442.635L450.238 440.916C450.913 440.199 451.739 439.698 452.414 439.125C456.768 436.761 456.543 432.391 456.393 429.096C456.318 428.38 456.318 427.878 456.318 427.377C457.293 426.446 458.419 425.586 459.545 424.87C461.722 426.947 463.599 424.082 465.625 423.867C465.55 423.509 465.55 423.151 465.475 422.864C465.925 422.864 466.376 422.793 466.826 422.793C468.102 422.22 469.303 421.646 471.93 420.357C471.105 418.781 470.279 417.205 469.528 415.629C471.63 417.205 473.582 418.781 475.383 420.214C477.185 421.718 478.836 423.151 480.112 424.368C481.313 425.586 482.139 426.589 482.364 427.377C484.991 428.093 489.345 422.936 491.371 427.377C491.672 427.95 491.897 428.595 492.272 429.025C492.497 430.242 492.722 431.46 493.173 432.606C493.773 432.964 494.299 433.394 495.5 434.11C496.551 432.463 497.677 430.887 498.727 429.24C501.58 430.027 504.282 430.815 507.209 431.532C507.284 431.603 507.51 431.747 507.585 431.747C507.81 432.32 507.885 432.749 508.11 433.108C509.536 437.334 510.062 434.325 511.488 434.182L513.289 433.394C513.965 433.179 514.565 432.893 515.241 432.463C516.667 433.108 518.093 433.537 519.669 434.039C521.096 435.257 522.447 436.403 524.023 437.477C525.674 437.334 527.176 437.406 528.827 437.262C529.878 437.406 530.854 437.692 531.98 437.835C533.931 439.053 535.733 440.271 537.459 440.629C539.185 440.987 540.837 440.486 542.713 438.265C544.44 437.907 546.241 437.262 548.118 436.904C551.42 436.761 551.646 433.967 552.621 432.32C552.021 431.102 551.42 430.099 550.82 428.881C550.82 428.308 550.82 427.735 550.97 427.019C551.871 425.3 552.847 423.581 553.747 421.933C554.423 420.715 555.174 419.497 555.924 418.28C557.275 417.349 558.551 416.346 559.977 415.414C561.404 410.114 565.607 405.243 561.629 403.094C561.178 402.306 560.803 401.589 560.503 400.873C561.629 397.721 562.83 394.426 564.031 391.274C565.457 388.624 566.958 385.83 568.384 383.037C571.612 380.458 573.864 374.512 571.012 375.945C570.111 378.022 569.21 380.171 568.384 382.249C567.934 381.246 567.634 380.601 567.183 379.741C567.859 377.306 568.685 374.799 569.51 372.435C568.91 371.146 569.51 368.28 567.859 368.638C566.508 370.358 564.856 370.429 563.881 369.498C562.68 367.421 561.704 369.856 561.178 369.856C561.103 369.856 561.103 369.785 561.028 369.785C560.428 369.856 559.752 369.856 559.227 369.713C557.576 368.782 555.849 367.779 554.198 366.776C553.522 365.272 553.147 363.624 551.42 363.194C549.544 363.338 547.817 362.908 546.091 362.406C544.365 361.905 542.713 361.332 540.837 361.26C536.483 361.045 531.604 364.126 525.975 362.048C525.374 362.048 524.774 362.048 524.248 361.905C524.173 361.69 523.648 361.117 522.897 360.258C522.897 360.186 522.897 360.043 522.897 359.971C522.747 359.899 522.597 359.828 522.447 359.756C522.297 359.613 522.222 359.469 522.071 359.326C522.146 358.753 522.222 358.252 522.222 357.75C523.122 353.667 522.522 354.24 523.047 352.45C523.272 353.452 523.498 354.455 523.723 355.458C524.398 356.031 524.999 356.533 525.674 357.249C528.677 360.114 551.12 357.679 554.048 361.618C555.249 360.759 554.948 354.169 557.275 356.676C557.576 357.034 557.876 357.392 558.176 357.535C558.701 358.395 559.152 359.326 559.752 360.043C560.053 360.043 560.428 360.043 561.103 360.114C560.953 358.18 560.728 356.318 560.578 354.384C561.854 353.596 563.055 352.736 564.331 351.948C564.406 351.948 564.481 351.948 564.556 351.948C564.781 352.306 565.007 352.664 565.157 352.808C567.033 355.673 566.208 352.879 566.658 352.02C566.808 351.518 566.883 351.017 567.033 350.444C567.183 349.942 567.334 349.441 567.409 348.725C568.084 348.581 568.76 348.223 569.435 347.937C570.261 348.295 571.087 348.653 571.912 348.868C572.438 348.008 572.963 347.364 573.489 346.504C573.864 346.146 574.314 346.003 574.765 345.716C576.866 346.146 578.443 347.22 578.668 341.705C579.193 340.702 579.644 339.484 580.244 338.481C580.694 337.908 580.92 337.192 580.92 336.332C580.995 336.261 581.145 336.261 581.22 336.189C582.646 334.398 584.072 332.679 585.498 330.888L587.6 330.315C588.05 329.814 588.501 329.456 588.876 329.097C590.978 327.736 592.779 323.725 594.13 320.716C594.431 320.072 594.656 319.57 594.806 319.141C595.482 318.496 596.157 317.923 596.758 317.493C596.457 319.785 598.184 317.565 598.784 317.779C599.685 315.702 600.586 313.553 601.486 311.476C601.637 311.977 601.862 312.479 602.087 312.837C602.462 312.407 602.763 312.049 603.063 311.619C603.738 310.186 604.264 309.04 604.864 307.823C604.564 307.178 604.189 306.533 603.738 306.103C604.264 302.522 602.237 303.74 602.988 300.731C601.637 301.519 600.961 300.086 599.91 299.871C600.06 297.937 600.135 296.003 600.21 294.141C599.835 293.926 599.385 293.639 599.009 293.424C599.16 292.708 599.235 292.135 599.385 291.634C599.685 290.917 599.835 290.416 599.985 289.914C600.961 290.774 601.862 291.562 602.913 292.135C603.213 293.783 604.489 294.785 605.54 295.932C605.99 295.717 606.516 295.573 606.891 295.502C608.617 293.711 610.269 291.992 612.07 290.201L615.373 289.771C615.898 289.27 616.499 288.912 617.024 288.553C619.952 287.264 621.228 283.038 622.278 279.886C622.504 279.241 622.654 278.74 622.804 278.238C623.63 277.594 624.455 277.021 625.281 276.591C625.656 279.026 627.608 276.734 628.659 276.949C629.259 274.728 629.785 272.508 630.385 270.287C630.835 270.86 631.286 271.362 631.811 271.791C632.187 271.362 632.562 270.932 632.862 270.502C633.312 268.998 633.688 267.78 634.063 266.491C633.538 265.918 632.787 265.273 631.961 264.771Z" fill="#122F2A"/>
</svg>
