<svg width="101" height="71" viewBox="0 0 101 71" fill="none" xmlns="http://www.w3.org/2000/svg">
<g clip-path="url(#clip0_9_4335)">
<g clip-path="url(#clip1_9_4335)">
<g clip-path="url(#clip2_9_4335)">
<path d="M100.48 39.0875C100.361 36.3181 97.6508 34.1065 92.4107 32.5125C88.3462 31.2971 83.1858 30.5599 77.607 30.4404V9.18115C77.5871 8.82251 77.4874 8.4838 77.3081 8.18494C76.7503 5.7741 74.0605 3.82152 69.2986 2.38697C64.8156 1.03212 58.9579 0.294922 52.8013 0.294922C46.6646 0.294922 40.8666 1.03212 36.4633 2.38697C32.857 3.50273 28.5335 5.57486 28.5335 9.1413C28.5335 9.36047 28.5534 9.57964 28.5932 9.7988L28.8124 18.8843C15.8616 16.4137 3.3691 24.9214 0.91841 37.8522C0.63947 39.3266 0.5 40.801 0.5 42.2954C0.5 55.4454 11.1993 66.1447 24.3494 66.1447C29.8286 66.1447 35.1284 64.2718 39.3723 60.805C43.0981 61.6817 47.4815 62.1599 52.1238 62.1997C53.14 67.7187 65.0945 70.2491 76.2322 70.2491C82.3689 70.2491 88.1669 69.492 92.5701 68.1172C96.1764 67.0015 100.5 64.9094 100.5 61.343V39.4661C100.5 39.3466 100.5 39.2071 100.48 39.0875ZM73.4428 20.1993C73.4428 20.4583 72.4865 21.8331 68.1629 23.1481C64.1183 24.3635 58.5195 25.0808 52.8212 25.0808C47.8999 25.0808 43.0782 24.5627 39.2527 23.5864C39.193 23.5665 39.1531 23.5665 39.0933 23.5466C37.2005 22.0523 35.1085 20.8568 32.857 20.02L32.7176 14.4013C34.0924 15.0987 35.5269 15.6566 37.0212 16.0551C41.3448 17.3103 46.9435 17.9877 52.8212 17.9877C58.9579 17.9877 64.8355 17.2505 69.3185 15.8957C70.8128 15.4573 72.2673 14.8795 73.6421 14.1623V19.3824C73.4229 19.6614 73.4428 19.9204 73.4428 20.1993ZM37.6588 6.23236C41.6835 4.99705 47.0631 4.2997 52.8013 4.2997C58.4996 4.2997 64.0983 4.99705 68.143 6.23236C72.4665 7.54736 73.4229 8.90221 73.4229 9.16123C73.4229 9.44017 72.4466 10.815 68.123 12.1101C64.0784 13.3254 58.4996 14.0228 52.8013 14.0228C47.3022 14.0228 42.082 13.3852 38.1171 12.2296C33.8333 10.9943 32.6379 9.63941 32.5383 9.20108C32.5383 9.16123 32.5183 9.16123 32.5183 9.16123C32.5383 8.78267 33.4548 7.50751 37.6588 6.23236ZM37.7186 56.9995C29.6094 64.3715 17.0372 63.7937 9.66517 55.6845C2.29319 47.5753 2.87099 35.0031 10.9802 27.6311C14.6263 24.3037 19.4081 22.4707 24.3494 22.4707C26.3418 22.4707 28.3143 22.7695 30.227 23.3474C37.1408 25.4992 42.341 31.2374 43.8154 38.3105C44.0744 39.6255 44.2139 40.9803 44.2139 42.3153C44.2338 47.914 41.8628 53.2338 37.7186 56.9995ZM42.7793 57.4378C44.3932 55.4653 45.6883 53.2537 46.6048 50.8827C48.2984 51.0222 50.0517 51.1218 51.8847 51.1417V51.5004L52.0043 58.2547C48.916 58.2149 45.8278 57.9359 42.7793 57.4378ZM48.0991 39.9443C49.2547 40.024 50.4701 40.0638 51.7054 40.0838L51.825 47.137C50.4303 47.117 49.0555 47.0573 47.7405 46.9576C48.0394 45.4235 48.1987 43.8494 48.1987 42.2954C48.1987 41.5183 48.1589 40.7413 48.0991 39.9443ZM53.0005 36.1188C52.9407 36.1188 52.861 36.1188 52.8013 36.1188C50.8885 36.1188 49.0356 36.0391 47.3221 35.9196C46.565 33.2497 45.3695 30.7393 43.7556 28.5077C46.7443 28.8863 49.7528 29.0855 52.7813 29.0855C58.9379 29.0855 64.8156 28.3483 69.2986 26.9935C70.7929 26.5552 72.2274 25.9774 73.6022 25.28V30.5002C65.0547 30.7393 56.2681 32.5324 53.0005 36.1188ZM55.6305 39.2868C55.6305 39.2669 55.6305 39.2469 55.6504 39.2071C55.8297 38.6691 57.2444 37.3541 61.3687 36.1985C65.234 35.1027 70.2748 34.505 75.5747 34.505H75.9134C81.6118 34.505 87.1906 35.1625 91.2551 36.3978C95.499 37.6729 96.4952 38.9879 96.5151 39.2868V39.3067C96.4952 39.6056 95.499 40.9804 91.0758 42.2954C86.9913 43.5107 81.6118 44.1682 75.9334 44.1682C70.4342 44.1682 65.2141 43.5307 61.2492 42.395C56.9654 41.1597 55.7899 39.7849 55.6703 39.3665C55.6305 39.2868 55.6305 39.2868 55.6305 39.2868ZM91.4145 64.3316C87.3898 65.5868 81.9903 66.2842 76.2521 66.2842C70.494 66.2842 65.1145 65.6068 61.1296 64.3914C56.9256 63.0963 56.0489 61.7614 56.0489 61.4625C56.0489 61.4426 56.0489 61.4426 56.0489 61.4227L55.9493 55.6446C57.5432 56.4217 59.197 57.0194 60.9104 57.4577C65.0945 58.5536 70.4143 59.1712 75.8736 59.1712C82.0302 59.1712 87.868 58.434 92.331 57.0792C93.7855 56.6408 95.1802 56.063 96.5151 55.3856V61.3629H96.5351C96.5351 61.6418 95.6185 63.0166 91.4145 64.3316ZM96.555 49.6673H96.5351C96.5351 49.8666 96.4155 50.1057 96.4155 50.3248C96.4155 50.6038 95.4791 51.9586 91.1754 53.2736C87.091 54.5089 81.6516 55.1864 75.8935 55.1864C64.8554 55.1864 57.4237 52.6958 55.8696 50.7632L55.8497 49.0895L55.77 44.5069C57.1647 45.2043 58.6191 45.7622 60.1135 46.1806C64.437 47.4358 70.0358 48.1132 75.9134 48.1132C81.9704 48.1132 87.7485 47.396 92.1916 46.081C93.7058 45.6626 95.1603 45.0848 96.555 44.3675V49.6673Z" fill="white"/>
<path d="M31.6018 45.1238C30.6853 41.8762 27.7166 39.6446 24.3493 39.6446C22.3968 39.6446 20.8028 38.0706 20.8028 36.118C20.8227 34.1455 22.3968 32.5715 24.3493 32.5715C26.3019 32.5715 27.8959 34.1655 27.8959 36.118C27.8959 37.2139 28.7925 38.1105 29.8883 38.1105C30.9841 38.1105 31.8807 37.2139 31.8807 36.118C31.8807 32.7508 29.6492 29.7821 26.4015 28.8656V27.969C26.4015 26.8732 25.505 25.9766 24.4091 25.9766C23.3133 25.9766 22.4167 26.8732 22.4167 27.969V28.8258C18.4119 29.9017 16.021 34.026 17.0969 38.0308C17.9736 41.3183 20.9423 43.6096 24.3493 43.6096C26.3019 43.6096 27.8959 45.1836 27.8959 47.1362C27.8959 49.0888 26.3219 50.6827 24.3693 50.6827C22.4167 50.6827 20.8227 49.1087 20.8227 47.1561C20.8227 46.0603 19.9262 45.1637 18.8303 45.1637C17.7345 45.1637 16.8379 46.0603 16.8379 47.1561C16.8578 50.5632 19.1292 53.5319 22.4167 54.4285V56.1619C22.4167 57.2577 23.3133 58.1543 24.4091 58.1543C25.505 58.1543 26.4015 57.2577 26.4015 56.1619V54.4085C30.4063 53.2729 32.7375 49.1286 31.6018 45.1238Z" fill="white"/>
</g>
</g>
</g>
<defs>
<clipPath id="clip0_9_4335">
<rect width="100" height="70" fill="white" transform="translate(0.5 0.271484)"/>
</clipPath>
<clipPath id="clip1_9_4335">
<rect width="100" height="70" fill="white" transform="translate(0.5 0.271484)"/>
</clipPath>
<clipPath id="clip2_9_4335">
<rect width="100" height="70" fill="white" transform="translate(0.5 0.271484)"/>
</clipPath>
</defs>
</svg>
