<svg width="46" height="45" viewBox="0 0 46 45" fill="none" xmlns="http://www.w3.org/2000/svg">
<path d="M44.56 30.9L41.11 27.45V15.45L43.36 14.55C43.96 14.35 44.26 13.95 44.26 13.35C44.26 12.75 43.96 12.35 43.36 12.15L22.66 4.65C22.36 4.55 22.06 4.55 21.76 4.65L0.91001 12.15C0.31001 12.35 0.0100098 12.75 0.0100098 13.35C0.0100098 13.95 0.31001 14.35 0.91001 14.55L8.56001 17.4V26.1C8.56001 26.4 8.66001 26.65 8.86001 26.85C9.36001 27.65 10.31 28.4 11.71 29.1C14.31 30.5 17.685 31.2 21.835 31.2C25.985 31.2 29.41 30.5 32.11 29.1C33.51 28.4 34.51 27.7 35.11 27C35.21 26.7 35.26 26.4 35.26 26.1V17.55L38.56 16.35V27.45L34.96 30.9C34.76 31.1 34.66 31.4 34.66 31.8C34.66 32.2 34.76 32.5 34.96 32.7L38.56 36.3V39.15C38.56 39.55 38.685 39.875 38.935 40.125C39.185 40.375 39.485 40.5 39.835 40.5C40.185 40.5 40.485 40.375 40.735 40.125C40.985 39.875 41.11 39.55 41.11 39.15V36.3L44.56 32.7C44.86 32.5 45.01 32.2 45.01 31.8C45.01 31.4 44.86 31.1 44.56 30.9ZM22.21 7.2L39.16 13.35L21.91 19.65L5.11001 13.35L22.21 7.2ZM32.71 25.65C31.21 26.95 28.91 27.8 25.81 28.2C23.01 28.6 20.16 28.575 17.26 28.125C14.36 27.675 12.36 26.85 11.26 25.65V18.45L21.46 22.2C21.76 22.3 22.06 22.3 22.36 22.2L32.71 18.45V25.65ZM39.76 33.75L37.81 31.8L39.76 29.85L41.86 31.8L39.76 33.75Z" fill="#F74F22"/>
</svg>
