<svg width="14" height="13" viewBox="0 0 14 13" fill="none" xmlns="http://www.w3.org/2000/svg">
<path d="M12.69 8.57971C12.9211 8.63749 13.1016 8.76027 13.2316 8.94805C13.3616 9.13582 13.4122 9.35971 13.3833 9.61971L13.2533 11.093C13.2244 11.6997 13.0222 12.133 12.6466 12.393C12.2711 12.653 11.7944 12.7397 11.2166 12.653C9.45441 12.4219 7.84386 11.8442 6.38497 10.9197C4.92608 9.99527 3.73441 8.8036 2.80997 7.34471C1.88552 5.88582 1.30775 4.27527 1.07664 2.51305C1.01886 1.90638 1.08386 1.4586 1.27164 1.16971C1.45941 0.880825 1.76997 0.678602 2.2033 0.563047C2.4633 0.505269 2.88219 0.447492 3.45997 0.389713L4.10997 0.34638C4.36997 0.317492 4.59386 0.368047 4.78164 0.498047C4.96941 0.628047 5.07775 0.808602 5.10664 1.03971L5.5833 2.85971C5.66997 3.1486 5.7133 3.37971 5.7133 3.55305C5.74219 3.78416 5.68441 3.98638 5.53997 4.15971L4.88997 5.28638C4.74552 5.4886 4.71664 5.69082 4.8033 5.89305C5.46775 7.25082 6.47886 8.26194 7.83664 8.92638C8.00997 9.04194 8.19775 9.02749 8.39997 8.88305L9.56997 8.18971C9.7433 8.04527 9.95997 7.98749 10.22 8.01638C10.3644 8.01638 10.5811 8.05971 10.87 8.14638L11.1733 8.18971L12.69 8.57971Z" fill="#ED6637"/>
</svg>
