<svg width="16" height="15" viewBox="0 0 16 15" fill="none" xmlns="http://www.w3.org/2000/svg">
<path d="M14.49 9.89922C14.7567 9.96589 14.965 10.1076 15.115 10.3242C15.265 10.5409 15.3233 10.7992 15.29 11.0992L15.14 12.7992C15.1067 13.4992 14.8733 13.9992 14.44 14.2992C14.0067 14.5992 13.4567 14.6992 12.79 14.5992C10.7567 14.3326 8.89833 13.6659 7.215 12.5992C5.53166 11.5326 4.15666 10.1576 3.09 8.47422C2.02333 6.79089 1.35666 4.93255 1.09 2.89922C1.02333 2.19922 1.09833 1.68255 1.315 1.34922C1.53166 1.01589 1.89 0.782552 2.39 0.649219C2.69 0.582552 3.17333 0.515885 3.84 0.449219L4.59 0.399219C4.89 0.365885 5.14833 0.424218 5.365 0.574219C5.58166 0.724218 5.70666 0.932552 5.74 1.19922L6.29 3.29922C6.39 3.63255 6.44 3.89922 6.44 4.09922C6.47333 4.36589 6.40666 4.59922 6.24 4.79922L5.49 6.09922C5.32333 6.33255 5.29 6.56589 5.39 6.79922C6.15666 8.36589 7.32333 9.53255 8.89 10.2992C9.09 10.4326 9.30666 10.4159 9.54 10.2492L10.89 9.44922C11.09 9.28255 11.34 9.21589 11.64 9.24922C11.8067 9.24922 12.0567 9.29922 12.39 9.39922L12.74 9.44922L14.49 9.89922Z" fill="white"/>
</svg>
