<svg width="18" height="17" viewBox="0 0 18 17" fill="none" xmlns="http://www.w3.org/2000/svg">
<rect x="0.339996" width="17" height="17" rx="8.5" fill="#F74F22"/>
<path d="M12.2233 8.21935L9.70333 5.69935C9.62555 5.62157 9.53222 5.58268 9.42333 5.58268C9.31444 5.58268 9.22889 5.62157 9.16666 5.69935L8.93333 5.93268C8.85555 6.01046 8.81666 6.0999 8.81666 6.20102C8.81666 6.30213 8.85555 6.39157 8.93333 6.46935L10.4033 7.96268H5.71333C5.60444 7.96268 5.515 7.99768 5.445 8.06768C5.375 8.13768 5.34 8.22713 5.34 8.33602V8.66268C5.34 8.75602 5.375 8.84157 5.445 8.91935C5.515 8.99713 5.60444 9.03602 5.71333 9.03602H10.4267L8.93333 10.5293C8.85555 10.6071 8.81666 10.6966 8.81666 10.7977C8.81666 10.8988 8.85555 10.9882 8.93333 11.066L9.16666 11.2993C9.22889 11.3771 9.31444 11.416 9.42333 11.416C9.53222 11.416 9.62555 11.3771 9.70333 11.2993L12.2233 8.77935C12.3011 8.70157 12.34 8.60824 12.34 8.49935C12.34 8.39046 12.3011 8.29713 12.2233 8.21935Z" fill="white"/>
</svg>
