<svg width="67" height="66" viewBox="0 0 67 66" fill="none" xmlns="http://www.w3.org/2000/svg">
<rect x="0.890015" y="0.5" width="65" height="65" rx="32.5" stroke="#F74F22"/>
<path d="M40.64 33.9L35.24 28.5C35.0733 28.3333 34.8733 28.25 34.64 28.25C34.4067 28.25 34.2233 28.3333 34.09 28.5L33.59 29C33.4233 29.1667 33.34 29.3583 33.34 29.575C33.34 29.7917 33.4233 29.9833 33.59 30.15L36.74 33.35H26.69C26.4567 33.35 26.265 33.425 26.115 33.575C25.965 33.725 25.89 33.9167 25.89 34.15V34.85C25.89 35.05 25.965 35.2333 26.115 35.4C26.265 35.5667 26.4567 35.65 26.69 35.65H36.79L33.59 38.85C33.4233 39.0167 33.34 39.2083 33.34 39.425C33.34 39.6417 33.4233 39.8333 33.59 40L34.09 40.5C34.2233 40.6667 34.4067 40.75 34.64 40.75C34.8733 40.75 35.0733 40.6667 35.24 40.5L40.64 35.1C40.8067 34.9333 40.89 34.7333 40.89 34.5C40.89 34.2667 40.8067 34.0667 40.64 33.9Z" fill="#F74F22"/>
</svg>
