<svg width="21" height="21" viewBox="0 0 21 21" fill="none" xmlns="http://www.w3.org/2000/svg">
<path d="M20.0788 10.141L15.9455 6.07435C15.8121 5.89657 15.6344 5.80768 15.4121 5.80768C15.1899 5.80768 15.001 5.88546 14.8455 6.04101C14.6899 6.19657 14.6121 6.38546 14.6121 6.60768C14.6121 6.8299 14.701 7.00768 14.8788 7.14102L17.6121 9.87435H1.07881C0.856586 9.87435 0.667697 9.95213 0.512142 10.1077C0.356586 10.2632 0.278809 10.4521 0.278809 10.6743C0.278809 10.8966 0.356586 11.0855 0.512142 11.241C0.667697 11.3966 0.856586 11.4743 1.07881 11.4743H17.6121L14.8788 14.2077C14.701 14.341 14.6121 14.5188 14.6121 14.741C14.6121 14.9632 14.6899 15.1521 14.8455 15.3077C15.001 15.4632 15.1899 15.541 15.4121 15.541C15.6344 15.541 15.8121 15.4521 15.9455 15.2743L20.0788 11.2077C20.2121 11.0743 20.2788 10.8966 20.2788 10.6743C20.2788 10.4521 20.2121 10.2743 20.0788 10.141Z" fill="#F74F22"/>
</svg>
