<svg width="20" height="21" viewBox="0 0 20 21" fill="none" xmlns="http://www.w3.org/2000/svg">
<path d="M19.5723 19.6719L13.4785 13.5781C14.6504 12.25 15.3535 10.4922 15.3535 8.61719C15.3535 4.39844 11.916 0.960938 7.69727 0.960938C5.62695 0.960938 3.71289 1.78125 2.26758 3.1875C0.822266 4.63281 0.0410156 6.58594 0.0410156 8.61719C0.0410156 12.8359 3.47852 16.2734 7.69727 16.2734C9.57227 16.2734 11.3301 15.5703 12.6582 14.3984L18.752 20.4922L19.5723 19.6719ZM7.69727 15.1016C4.10352 15.1016 1.21289 12.1719 1.21289 8.61719C1.21289 6.89844 1.87695 5.25781 3.12695 4.04688C4.33789 2.83594 5.93945 2.13281 7.69727 2.13281C11.252 2.13281 14.1426 5.0625 14.1426 8.61719C14.1426 12.1719 11.252 15.1016 7.69727 15.1016Z" fill="#061408"/>
</svg>
