<svg width="262" height="182" viewBox="0 0 262 182" fill="none" xmlns="http://www.w3.org/2000/svg">
<g clip-path="url(#clip0_9_4738)">
<path d="M260.024 181.714L257.3 180.484C260.055 172.738 259.323 163.555 255.475 155.31C251.626 147.064 245.21 141.267 238.039 139.477C234.888 138.636 231.571 138.551 228.361 138.368C222.715 138.1 216.788 137.686 211.719 134.276C205 129.66 202.128 121.427 199.247 113.303C197.527 108.541 195.827 103.56 193.362 99.4797C185.174 86.253 169.225 83.1353 157.067 84.597C148.264 85.7054 139.583 88.7138 131.104 91.637C126.362 93.2569 121.513 94.9743 116.694 96.3628C99.4407 101.174 85.2868 99.8343 74.8124 92.4172C63.2376 84.1962 56.9587 69.3252 52.5139 55.794C51.8995 53.9427 51.2851 52.0915 50.6607 50.3498C46.8403 38.5602 42.7696 26.2956 35.3941 17.0516C27.228 6.82095 12.7279 0.670533 2.38248 8.01484L0.77417 5.26232C12.8921 -3.29995 28.6762 3.78827 37.4594 14.7618C45.1818 24.493 49.3293 36.989 53.3132 49.1319C53.9277 50.9831 54.5421 52.8344 55.0698 54.5638C59.4676 67.5348 65.3128 81.7968 76.2506 89.4941C86.088 96.3875 99.3719 97.6175 115.919 93.05C120.728 91.7711 125.48 90.0416 130.223 88.4216C138.807 85.401 147.595 82.2952 156.688 81.2233C169.737 79.652 186.825 83.1351 195.697 97.4458C198.433 101.782 200.209 106.995 201.909 111.976C204.617 119.856 207.268 127.285 213.167 131.244C217.589 134.24 222.839 134.568 228.389 134.824C231.793 135.031 235.196 135.238 238.646 136.005C246.678 138.015 253.721 144.446 257.983 153.519C262.322 162.824 262.965 172.994 260.024 181.714Z" fill="#FFCC00"/>
</g>
<defs>
<clipPath id="clip0_9_4738">
<rect width="262" height="181" fill="white" transform="translate(0 0.830078)"/>
</clipPath>
</defs>
</svg>
