<svg width="151" height="372" viewBox="0 0 151 372" fill="none" xmlns="http://www.w3.org/2000/svg">
<path d="M-10.1639 371.02C-12.6103 313.339 -0.760754 274.294 25.9963 251.672C33.1443 245.631 41.286 240.972 49.1985 236.432C53.0974 234.182 57.1491 231.853 61.0098 229.405C75.3057 220.324 84.1738 210.573 87.9962 199.676C88.646 197.9 89.1047 196.005 89.3723 194.07C80.6189 197.742 73.5474 198.966 67.0493 197.939C59.9778 196.794 51.8742 191.859 49.6572 183.371C48.09 177.291 50.3834 170.856 55.8495 166.158C62.3094 160.591 71.1775 159.091 77.8668 162.407C88.1109 167.46 92.5449 179.226 92.048 190.319C115.709 179.186 134.553 157.748 142.925 132.284C151.678 105.595 148.658 75.156 134.821 50.8363C129.279 41.0847 121.901 31.9648 114.791 23.1608C101.719 6.97387 88.2256 -9.72621 85.7792 -30.769C83.6004 -50.2327 92.048 -70.2491 107.338 -81.7773L108.676 -79.8428C94.0357 -68.7884 85.9703 -49.68 88.1109 -31.0849C90.4426 -10.7526 103.171 4.99988 116.588 21.621C123.774 30.5041 131.19 39.7029 136.847 49.6124C150.99 74.4848 154.086 105.674 145.142 132.994C136.465 159.486 116.664 181.713 91.8951 192.965C91.5893 195.57 91.0159 198.097 90.175 200.466C86.1232 211.915 76.9876 222.022 62.233 231.418C58.3341 233.905 54.2441 236.235 50.307 238.485C42.5092 242.946 34.4439 247.605 27.4488 253.488C1.26513 275.596 -10.2786 313.971 -7.87049 370.862L-10.1639 371.02ZM70.2601 162.96C65.4056 162.96 60.6658 165.092 57.3785 167.934C52.6387 172.001 50.6128 177.528 51.9506 182.7C53.9001 190.162 61.1627 194.544 67.4697 195.57C73.5474 196.557 80.2749 195.333 88.646 191.82C88.99 191.662 89.3723 191.504 89.7163 191.346C90.4808 180.686 86.3526 169.119 76.9111 164.46C74.7706 163.434 72.4771 162.96 70.2601 162.96Z" fill="white" fill-opacity="0.18"/>
</svg>
