<svg width="46" height="46" viewBox="0 0 46 46" fill="none" xmlns="http://www.w3.org/2000/svg">
<path d="M27.1562 4.71016V3.81015C27.1562 3.01015 26.8812 2.33516 26.3312 1.78516C25.7812 1.23515 25.1062 0.960155 24.3062 0.960155H20.5562C19.8562 0.960155 19.2312 1.23515 18.6812 1.78516C18.1312 2.33516 17.8562 3.01015 17.8562 3.81015V4.71016H16.3562C15.7562 4.71016 15.2312 4.93515 14.7812 5.38515C14.3312 5.83516 14.1062 6.36015 14.1062 6.96016V8.16016C14.1062 8.76015 14.3312 9.28516 14.7812 9.73515C15.2312 10.1852 15.7562 10.4102 16.3562 10.4102H28.6562C29.2562 10.4102 29.7812 10.1852 30.2312 9.73515C30.6812 9.28516 30.9062 8.76015 30.9062 8.16016V6.96016C30.9062 6.36015 30.6812 5.83516 30.2312 5.38515C29.7812 4.93515 29.2562 4.71016 28.6562 4.71016H27.1562ZM25.3562 5.61015C25.3562 5.91016 25.4312 6.16016 25.5812 6.36015C25.7312 6.56015 25.9562 6.66016 26.2562 6.66016H28.6562C28.9562 6.66016 29.1062 6.76015 29.1062 6.96016V8.16016C29.1062 8.36015 28.9562 8.46016 28.6562 8.46016H16.3562C16.0562 8.46016 15.9062 8.36015 15.9062 8.16016V6.96016C15.9062 6.76015 16.0562 6.66016 16.3562 6.66016H18.7562C19.0562 6.66016 19.2812 6.56015 19.4312 6.36015C19.5812 6.16016 19.6562 5.91016 19.6562 5.61015V3.81015C19.6562 3.51015 19.7562 3.28516 19.9562 3.13515C20.1562 2.98515 20.3562 2.91016 20.5562 2.91016H24.3062C24.6062 2.91016 24.8562 2.98515 25.0562 3.13515C25.2562 3.28516 25.3562 3.51015 25.3562 3.81015V5.61015ZM12.4562 17.6102L14.4062 19.4102C14.5062 19.6102 14.7062 19.7102 15.0062 19.7102C15.3062 19.7102 15.5062 19.6102 15.6062 19.4102L19.3562 15.6602C19.5562 15.5602 19.6562 15.3602 19.6562 15.0602C19.6562 14.7602 19.5812 14.5352 19.4312 14.3852C19.2812 14.2352 19.0562 14.1602 18.7562 14.1602C18.4562 14.1602 18.2562 14.2602 18.1562 14.4602L15.0062 17.4602L13.8062 16.2602C13.6062 16.0602 13.3812 15.9602 13.1312 15.9602C12.8812 15.9602 12.6562 16.0602 12.4562 16.2602C12.2562 16.4602 12.1562 16.6852 12.1562 16.9352C12.1562 17.1852 12.2562 17.4102 12.4562 17.6102ZM12.4562 26.9102L14.4062 28.8602C14.5062 29.0602 14.7062 29.1602 15.0062 29.1602C15.3062 29.1602 15.5062 29.0602 15.6062 28.8602L19.3562 25.1102C19.5562 24.9102 19.6562 24.6852 19.6562 24.4352C19.6562 24.1852 19.5812 23.9602 19.4312 23.7602C19.2812 23.5602 19.0562 23.4602 18.7562 23.4602C18.4562 23.4602 18.2562 23.5602 18.1562 23.7602L15.0062 26.9102L13.8062 25.7102C13.6062 25.5102 13.3812 25.4102 13.1312 25.4102C12.8812 25.4102 12.6562 25.4852 12.4562 25.6352C12.2562 25.7852 12.1562 26.0102 12.1562 26.3102C12.1562 26.6102 12.2562 26.8102 12.4562 26.9102ZM12.4562 36.3602L14.4062 38.1602C14.5062 38.3602 14.7062 38.4602 15.0062 38.4602C15.3062 38.4602 15.5062 38.3602 15.6062 38.1602L19.3562 34.4102C19.5562 34.3102 19.6562 34.1102 19.6562 33.8102C19.6562 33.5102 19.5812 33.2852 19.4312 33.1352C19.2812 32.9852 19.0562 32.9102 18.7562 32.9102C18.4562 32.9102 18.2562 33.0102 18.1562 33.2102L15.0062 36.2102L13.8062 35.0102C13.6062 34.8102 13.3812 34.7102 13.1312 34.7102C12.8812 34.7102 12.6562 34.8102 12.4562 35.0102C12.2562 35.2102 12.1562 35.4352 12.1562 35.6852C12.1562 35.9352 12.2562 36.1602 12.4562 36.3602ZM22.5062 15.9602H31.9562C32.1562 15.9602 32.3562 15.8852 32.5562 15.7352C32.7562 15.5852 32.8562 15.3602 32.8562 15.0602C32.8562 14.7602 32.7562 14.5352 32.5562 14.3852C32.3562 14.2352 32.1062 14.1602 31.8062 14.1602H22.5062C22.2062 14.1602 21.9812 14.2352 21.8312 14.3852C21.6812 14.5352 21.6062 14.7602 21.6062 15.0602C21.6062 15.3602 21.6812 15.5852 21.8312 15.7352C21.9812 15.8852 22.2062 15.9602 22.5062 15.9602ZM22.5062 25.4102H31.9562C32.1562 25.4102 32.3562 25.3102 32.5562 25.1102C32.7562 24.9102 32.8562 24.6852 32.8562 24.4352C32.8562 24.1852 32.7562 23.9602 32.5562 23.7602C32.3562 23.5602 32.1062 23.4602 31.8062 23.4602H22.5062C22.2062 23.4602 21.9812 23.5602 21.8312 23.7602C21.6812 23.9602 21.6062 24.1852 21.6062 24.4352C21.6062 24.6852 21.6812 24.9102 21.8312 25.1102C21.9812 25.3102 22.2062 25.4102 22.5062 25.4102ZM22.5062 34.7102H31.9562C32.1562 34.7102 32.3562 34.6352 32.5562 34.4852C32.7562 34.3352 32.8562 34.1102 32.8562 33.8102C32.8562 33.5102 32.7562 33.2852 32.5562 33.1352C32.3562 32.9852 32.1062 32.9102 31.8062 32.9102H22.5062C22.2062 32.9102 21.9812 32.9852 21.8312 33.1352C21.6812 33.2852 21.6062 33.5102 21.6062 33.8102C21.6062 34.1102 21.6812 34.3352 21.8312 34.4852C21.9812 34.6352 22.2062 34.7102 22.5062 34.7102ZM22.5062 19.7102H28.2062C28.4062 19.7102 28.6062 19.6352 28.8062 19.4852C29.0062 19.3352 29.1062 19.1102 29.1062 18.8102C29.1062 18.5102 29.0062 18.2852 28.8062 18.1352C28.6062 17.9852 28.3562 17.9102 28.0562 17.9102H22.5062C22.2062 17.9102 21.9812 17.9852 21.8312 18.1352C21.6812 18.2852 21.6062 18.5102 21.6062 18.8102C21.6062 19.1102 21.6812 19.3352 21.8312 19.4852C21.9812 19.6352 22.2062 19.7102 22.5062 19.7102ZM22.5062 29.1602H28.2062C28.4062 29.1602 28.6062 29.0602 28.8062 28.8602C29.0062 28.6602 29.1062 28.4352 29.1062 28.1852C29.1062 27.9352 29.0062 27.7102 28.8062 27.5102C28.6062 27.3102 28.3562 27.2102 28.0562 27.2102H22.5062C22.2062 27.2102 21.9812 27.3102 21.8312 27.5102C21.6812 27.7102 21.6062 27.9352 21.6062 28.1852C21.6062 28.4352 21.6812 28.6602 21.8312 28.8602C21.9812 29.0602 22.2062 29.1602 22.5062 29.1602ZM22.5062 38.4602H28.2062C28.4062 38.4602 28.6062 38.3852 28.8062 38.2352C29.0062 38.0852 29.1062 37.8602 29.1062 37.5602C29.1062 37.2602 29.0062 37.0352 28.8062 36.8852C28.6062 36.7352 28.3562 36.6602 28.0562 36.6602H22.5062C22.2062 36.6602 21.9812 36.7352 21.8312 36.8852C21.6812 37.0352 21.6062 37.2602 21.6062 37.5602C21.6062 37.8602 21.6812 38.0852 21.8312 38.2352C21.9812 38.3852 22.2062 38.4602 22.5062 38.4602ZM11.2562 6.66016H9.4562C8.6562 6.66016 7.9812 6.93515 7.4312 7.48515C6.8812 8.03516 6.6062 8.66016 6.6062 9.36015V41.3102C6.6062 42.1102 6.8812 42.7852 7.4312 43.3352C7.9812 43.8852 8.6062 44.1602 9.3062 44.1602H35.7062C36.4062 44.1602 37.0312 43.8852 37.5812 43.3352C38.1312 42.7852 38.4062 42.1102 38.4062 41.3102V9.36015C38.4062 8.66016 38.1312 8.03516 37.5812 7.48515C37.0312 6.93515 36.3562 6.66016 35.5562 6.66016H33.7562C33.4562 6.66016 33.2312 6.73515 33.0812 6.88515C32.9312 7.03516 32.8562 7.26015 32.8562 7.56015C32.8562 7.86015 32.9312 8.08516 33.0812 8.23515C33.2312 8.38515 33.4562 8.46016 33.7562 8.46016H35.7062C35.9062 8.46016 36.1062 8.56015 36.3062 8.76015C36.5062 8.96016 36.6062 9.16016 36.6062 9.36015V41.3102C36.6062 41.6102 36.5062 41.8352 36.3062 41.9852C36.1062 42.1352 35.8562 42.2102 35.5562 42.2102H9.4562C9.1562 42.2102 8.9062 42.1352 8.7062 41.9852C8.5062 41.8352 8.4062 41.6102 8.4062 41.3102V9.36015C8.4062 9.16016 8.5062 8.96016 8.7062 8.76015C8.9062 8.56015 9.1062 8.46016 9.3062 8.46016H11.2562C11.5562 8.46016 11.7812 8.38515 11.9312 8.23515C12.0812 8.08516 12.1562 7.86015 12.1562 7.56015C12.1562 7.26015 12.0812 7.03516 11.9312 6.88515C11.7812 6.73515 11.5562 6.66016 11.2562 6.66016Z" fill="#17C6D8"/>
</svg>
