<svg width="21" height="21" viewBox="0 0 21 21" fill="none" xmlns="http://www.w3.org/2000/svg">
<path d="M17.15 5.46039C17.29 5.64706 17.36 5.84539 17.36 6.05539C17.36 6.26539 17.29 6.46372 17.15 6.65039L8.82001 15.1904C8.63334 15.3304 8.42334 15.4004 8.19001 15.4004C7.95668 15.4004 7.77001 15.3304 7.63001 15.1904L3.50001 11.0604C3.36001 10.9204 3.29001 10.7337 3.29001 10.5004C3.29001 10.2671 3.37168 10.0687 3.53501 9.90539C3.69834 9.74206 3.88501 9.66039 4.09501 9.66039C4.30501 9.66039 4.50334 9.75372 4.69001 9.94039L8.19001 13.4404L15.96 5.53039C16.1467 5.34372 16.345 5.25039 16.555 5.25039C16.765 5.25039 16.9633 5.32039 17.15 5.46039Z" fill="#F74F22"/>
</svg>
