<svg width="21" height="21" viewBox="0 0 21 21" fill="none" xmlns="http://www.w3.org/2000/svg">
<rect width="21" height="21" rx="10.5" fill="#F74F22"/>
<path d="M15.25 6.9C15.35 7.03333 15.4 7.175 15.4 7.325C15.4 7.475 15.35 7.61667 15.25 7.75L9.30001 13.85C9.16667 13.95 9.01667 14 8.85001 14C8.68334 14 8.55001 13.95 8.45001 13.85L5.50001 10.9C5.40001 10.8 5.35001 10.6667 5.35001 10.5C5.35001 10.3333 5.40834 10.1917 5.52501 10.075C5.64167 9.95833 5.77501 9.9 5.92501 9.9C6.07501 9.9 6.21667 9.96667 6.35001 10.1L8.85001 12.6L14.4 6.95C14.5333 6.81667 14.675 6.75 14.825 6.75C14.975 6.75 15.1167 6.8 15.25 6.9Z" fill="white"/>
</svg>
