<svg width="46" height="46" viewBox="0 0 46 46" fill="none" xmlns="http://www.w3.org/2000/svg">
<path d="M25.9542 39.5102H14.5542C13.9542 39.5102 13.4292 39.2852 12.9792 38.8352C12.5292 38.3852 12.3042 37.8602 12.3042 37.2602V28.2602C12.3042 27.6602 12.5292 27.1352 12.9792 26.6852C13.4292 26.2352 13.9542 26.0102 14.5542 26.0102H20.2542C21.2542 26.0102 22.1042 26.3602 22.8042 27.0602C23.5042 27.7602 23.8042 28.6102 23.7042 29.6102V30.9602H24.4542C24.7542 30.9602 25.0542 30.8602 25.3542 30.6602L32.8542 25.8602C33.6542 25.3602 34.5292 25.2102 35.4792 25.4102C36.4292 25.6102 37.1792 26.1102 37.7292 26.9102C38.2792 27.7102 38.5042 28.5852 38.4042 29.5352C38.3042 30.4852 37.8542 31.3102 37.0542 32.0102L29.8542 38.0102C28.7542 39.0102 27.4542 39.5102 25.9542 39.5102ZM14.5542 27.9602C14.3542 27.9602 14.2542 28.0602 14.2542 28.2602V37.2602C14.2542 37.4602 14.3542 37.5602 14.5542 37.5602H25.9542C27.0542 37.5602 27.9542 37.2602 28.6542 36.6602L35.8542 30.5102C36.3542 30.1102 36.5792 29.5852 36.5292 28.9352C36.4792 28.2852 36.1542 27.8102 35.5542 27.5102C34.9542 27.2102 34.3542 27.2102 33.7542 27.5102L26.4042 32.1602C25.8042 32.5602 25.1542 32.7602 24.4542 32.7602H19.9542C19.6542 32.7602 19.4042 32.6602 19.2042 32.4602C19.0042 32.2602 18.9042 32.0352 18.9042 31.7852C18.9042 31.5352 19.0042 31.3352 19.2042 31.1852C19.4042 31.0352 19.6542 30.9602 19.9542 30.9602H21.9042V29.6102C21.9042 29.1102 21.7542 28.7102 21.4542 28.4102C21.1542 28.1102 20.7542 27.9602 20.2542 27.9602H14.5542ZM12.3042 40.4102H8.40419C7.90419 40.4102 7.47919 40.2102 7.12919 39.8102C6.77919 39.4102 6.60419 38.9602 6.60419 38.4602V26.3102C6.60419 25.8102 6.77919 25.3852 7.12919 25.0352C7.47919 24.6852 7.90419 24.4602 8.40419 24.3602H12.3042C12.8042 24.4602 13.2542 24.6852 13.6542 25.0352C14.0542 25.3852 14.2542 25.8102 14.2542 26.3102V38.4602C14.2542 38.9602 14.0542 39.4102 13.6542 39.8102C13.2542 40.2102 12.8042 40.4102 12.3042 40.4102ZM8.40419 26.3102V38.4602H12.3042V26.3102H8.40419ZM22.2042 25.4102C21.4042 25.3102 20.7042 25.0102 20.1042 24.5102C18.9042 23.6102 17.2542 22.0602 15.1542 19.8602C14.0542 18.7602 13.0792 17.7352 12.2292 16.7852C11.3792 15.8352 10.8292 14.6352 10.5792 13.1852C10.3292 11.7352 10.4542 10.3102 10.9542 8.91015C11.2542 8.01015 11.7042 7.26015 12.3042 6.66016C13.6042 5.36015 15.1292 4.71016 16.8792 4.71016C18.6292 4.71016 20.1542 5.36015 21.4542 6.66016L22.2042 7.56015L23.1042 6.66016C24.4042 5.36015 25.9292 4.71016 27.6792 4.71016C29.4292 4.71016 30.9542 5.36015 32.2542 6.66016C33.0542 7.46016 33.6042 8.48516 33.9042 9.73516C34.2042 10.9852 34.2042 12.2602 33.9042 13.5602C33.6042 14.8602 33.0542 15.9102 32.2542 16.7102C30.4542 18.8102 28.8042 20.5602 27.3042 21.9602C25.0042 24.2602 23.3042 25.4102 22.2042 25.4102ZM16.8042 6.66016C15.6042 6.66016 14.5542 7.11015 13.6542 8.01015C13.2542 8.41016 12.9542 8.91015 12.7542 9.51015C12.3542 10.5102 12.2542 11.5852 12.4542 12.7352C12.6542 13.8852 13.0542 14.7602 13.6542 15.3602V15.5102C16.9542 19.2102 19.4542 21.7102 21.1542 23.0102C21.4542 23.2102 21.8542 23.3352 22.3542 23.3852C22.8542 23.4352 23.9542 22.6352 25.6542 20.9852C27.3542 19.3352 29.0542 17.5102 30.7542 15.5102C31.6542 14.6102 32.1042 13.3352 32.1042 11.6852C32.1042 10.0352 31.6792 8.78515 30.8292 7.93515C29.9792 7.08516 28.9292 6.66016 27.6792 6.66016C26.4292 6.66016 25.3542 7.11015 24.4542 8.01015L22.9542 9.51015C22.7542 9.71016 22.5292 9.81016 22.2792 9.81016C22.0292 9.81016 21.8042 9.71016 21.6042 9.51015L20.1042 8.01015C19.2042 7.11015 18.1042 6.66016 16.8042 6.66016ZM28.8042 10.2602C28.5042 10.2602 28.2542 10.1602 28.0542 9.96016C27.8542 9.76015 27.6042 9.66015 27.3042 9.66015C27.0042 9.66015 26.7292 9.76015 26.4792 9.96016C26.2292 10.1602 25.9292 10.2352 25.5792 10.1852C25.2292 10.1352 25.0042 9.93516 24.9042 9.58516C24.8042 9.23516 24.8542 8.91015 25.0542 8.61016C25.6542 8.01015 26.3792 7.71016 27.2292 7.71016C28.0792 7.71016 28.8042 8.01015 29.4042 8.61016C29.7042 8.91015 29.7792 9.26015 29.6292 9.66015C29.4792 10.0602 29.2042 10.2602 28.8042 10.2602ZM41.2542 13.5602H38.5542C38.2542 13.5602 38.0042 13.4602 37.8042 13.2602C37.6042 13.0602 37.5042 12.8352 37.5042 12.5852C37.5042 12.3352 37.6042 12.1102 37.8042 11.9102C38.0042 11.7102 38.2542 11.6102 38.5542 11.6102H41.2542C41.5542 11.6102 41.7792 11.7102 41.9292 11.9102C42.0792 12.1102 42.1542 12.3352 42.1542 12.5852C42.1542 12.8352 42.0792 13.0602 41.9292 13.2602C41.7792 13.4602 41.5542 13.5602 41.2542 13.5602ZM37.5042 10.5602C37.1042 10.5602 36.8292 10.3602 36.6792 9.96016C36.5292 9.56016 36.6042 9.26015 36.9042 9.06016L38.8542 7.11015C39.0542 6.81015 39.3292 6.71016 39.6792 6.81015C40.0292 6.91016 40.2542 7.13515 40.3542 7.48515C40.4542 7.83516 40.3542 8.11015 40.0542 8.31015L38.1042 10.2602C38.0042 10.4602 37.8042 10.5602 37.5042 10.5602ZM39.4542 18.3602C39.1542 18.3602 38.9542 18.2602 38.8542 18.0602L36.9042 16.1102C36.7042 15.9102 36.6042 15.6852 36.6042 15.4352C36.6042 15.1852 36.6792 14.9852 36.8292 14.8352C36.9792 14.6852 37.2042 14.6102 37.5042 14.6102C37.8042 14.6102 38.0042 14.6602 38.1042 14.7602L40.0542 16.7102C40.3542 17.0102 40.4292 17.3602 40.2792 17.7602C40.1292 18.1602 39.8542 18.3602 39.4542 18.3602ZM6.45419 13.5602H3.75419C3.45419 13.5602 3.22919 13.4602 3.07919 13.2602C2.92919 13.0602 2.85419 12.8352 2.85419 12.5852C2.85419 12.3352 2.92919 12.1102 3.07919 11.9102C3.22919 11.7102 3.45419 11.6102 3.75419 11.6102H6.45419C6.75419 11.6102 7.00419 11.7102 7.20419 11.9102C7.40419 12.1102 7.50419 12.3352 7.50419 12.5852C7.50419 12.8352 7.40419 13.0602 7.20419 13.2602C7.00419 13.4602 6.75419 13.5602 6.45419 13.5602ZM7.50419 10.5602C7.20419 10.5602 7.00419 10.4602 6.90419 10.2602L4.95419 8.31015C4.75419 8.21016 4.65419 8.01015 4.65419 7.71016C4.65419 7.41016 4.72919 7.18515 4.87919 7.03516C5.02919 6.88515 5.25419 6.81015 5.55419 6.81015C5.85419 6.81015 6.05419 6.91016 6.15419 7.11015L8.10419 9.06016C8.40419 9.26015 8.47919 9.56016 8.32919 9.96016C8.17919 10.3602 7.90419 10.5602 7.50419 10.5602ZM5.55419 18.3602C5.15419 18.3602 4.87919 18.1602 4.72919 17.7602C4.57919 17.3602 4.65419 17.0102 4.95419 16.7102L6.90419 14.7602C7.00419 14.6602 7.20419 14.6102 7.50419 14.6102C7.80419 14.6102 8.02919 14.6852 8.17919 14.8352C8.32919 14.9852 8.40419 15.1852 8.40419 15.4352C8.40419 15.6852 8.30419 15.9102 8.10419 16.1102L6.15419 18.0602C6.05419 18.2602 5.85419 18.3602 5.55419 18.3602Z" fill="#F6A10C"/>
</svg>
