<svg width="113" height="102" viewBox="0 0 113 102" fill="none" xmlns="http://www.w3.org/2000/svg">
<path d="M71.6616 86.6864C72.6555 83.1185 71.0819 79.1161 68.3604 76.9379C65.6094 74.5831 62.1665 74.0675 58.981 73.7357C57.3625 73.8237 55.8176 73.8086 54.2284 74.0732C52.6761 74.2862 51.1531 74.6758 49.6448 75.1536C48.1366 75.6315 46.7313 76.183 45.3407 76.8228L43.2366 77.8082L42.2359 78.3377L41.7355 78.6024L41.4854 78.7348L41.3604 78.801L41.1984 78.9186C39.5652 78.9183 37.9688 78.8664 36.4017 78.9912C31.5241 79.3948 26.7347 80.3282 22.0848 81.8281C19.7231 82.6295 17.4276 83.5559 15.1982 84.6075C21.9165 77.2741 28.5683 70.9044 34.8596 65.366C38.0823 63.4686 41.6801 61.9171 45.3146 60.8584C49.7658 59.5277 54.4449 58.7489 59.1239 58.5145C60.9337 58.4854 62.7949 58.4931 64.6194 58.5523L64.9063 58.9129L66.3406 60.7157C67.3556 61.9077 68.3558 63.0114 69.4959 64.1372C71.7246 66.3521 74.3726 68.0888 77.3151 69.4137C80.2429 70.6502 83.5827 71.6367 87.0553 70.6957C90.5058 69.8945 93.5301 67.0775 94.3842 63.4875C95.3781 59.9197 93.8046 55.9172 91.083 53.7391C88.332 51.3843 84.8891 50.8686 81.7037 50.5369C80.0852 50.6248 78.5402 50.6098 76.9511 50.8743C75.3987 51.0874 73.8758 51.477 72.3676 51.9549C70.8593 52.4328 69.4541 52.9842 68.0635 53.624L65.9592 54.6094L64.9585 55.1389L64.4583 55.4036L64.2081 55.536L64.083 55.6022L63.9211 55.7198C62.2879 55.7195 60.6915 55.6677 59.1245 55.7924C54.2468 56.196 49.4573 57.1294 44.8075 58.6292C43.6523 59.0483 42.4972 59.4674 41.3421 59.8865C57.059 46.927 69.2654 39.8596 71.8406 38.4329C80.1311 41.6348 89.4523 41.7618 97.6852 38.6221C106.647 35.2251 112.018 29.8851 112.505 24.0881C112.807 20.1816 110.8 16.569 107.129 14.4127C102.303 11.5867 93.5784 10.9522 83.5938 17.7405C74.5804 23.8228 69.8181 35.2764 69.6267 35.7619L69.5899 35.8134C66.7646 37.3724 58.8845 42.0866 48.2449 50.1181C49.4004 48.0658 50.4159 45.9913 51.2771 43.8065C52.8817 39.8194 54.0377 35.5895 54.6345 31.2712C55.0101 28.895 55.1578 26.5114 55.1656 24.1057L55.2392 24.0027L55.7911 23.2303C56.1591 22.7154 56.4756 22.1638 56.792 21.6121C57.4249 20.5087 57.9549 19.3317 58.3965 18.1694C59.2651 15.7566 59.5967 13.1155 59.5752 10.5333C59.4139 7.92887 58.767 5.13314 56.9062 2.94777C55.0822 0.710924 51.8895 -0.481561 49.0055 0.179963C46.1068 0.753201 43.6271 3.02596 42.8173 5.79196C41.9707 8.60946 42.5292 11.4199 43.6102 13.8259C44.6911 16.2318 46.1841 18.3876 48.023 20.1683C48.9424 21.0587 49.8986 21.8975 50.8401 22.6481L52.2965 23.7667C52.554 23.9507 52.7085 24.0611 52.9291 24.2965C52.9434 26.5624 52.9061 28.7915 52.604 31.0647C51.7196 38.8334 48.9077 46.4692 44.6541 53.0748C38.8339 57.6275 32.3514 63.107 25.6113 69.4913C26.2959 67.3359 26.8554 65.2467 27.2605 63.0471C28.1 58.8244 28.4173 54.4619 28.1901 50.0993C28.0876 47.848 27.8084 45.6262 27.4043 43.4705L27.4632 43.2793L27.8091 42.3597L28.4128 40.5354C28.7515 39.2995 29.0901 38.0636 29.289 36.8056C29.6353 34.2529 29.5476 31.5456 29.0331 29C28.4304 26.4691 27.3054 23.7983 25.084 21.8998C22.8994 19.9498 19.4786 19.2944 16.6975 20.5739C13.9384 21.7136 11.9662 24.5824 11.767 27.4736C11.5309 30.4163 12.6192 33.1385 14.1122 35.2944C15.6566 37.487 17.4587 39.3192 19.533 40.8793C20.5628 41.6152 21.6809 42.3364 22.7843 42.9694L24.4762 43.8672L25.2191 44.2426C25.6454 46.2584 25.8952 48.3037 26.0566 50.3637C26.6583 57.7942 25.4796 65.4303 22.918 72.3894C15.1918 79.9359 7.28879 88.6007 -0.533579 98.5676C-1.1002 99.2516 -1.02687 100.237 -0.379593 100.855C-0.328103 100.892 -0.276584 100.929 -0.225094 100.966C0.510469 101.569 1.62141 101.43 2.17334 100.657C5.2346 96.7001 8.33992 93.0076 11.5114 89.4402C15.0285 87.1308 19.1413 85.4028 23.2393 84.1309C27.6905 82.8003 32.3696 82.0214 37.0486 81.787C38.8584 81.7579 40.7196 81.7656 42.5441 81.8248L42.831 82.1854L44.2653 83.9882C45.2288 85.1434 46.2805 86.2839 47.4206 87.4097C49.6493 89.6246 52.2973 91.3613 55.2398 92.6861C58.1676 93.9227 61.5073 94.9092 64.98 93.9682C67.7831 93.0933 70.8074 90.2763 71.6616 86.6864ZM68.6442 55.7502C70.0642 55.287 71.4474 54.8754 72.8452 54.552C74.2431 54.2285 75.6925 53.9419 77.083 53.8466C78.4734 53.7512 79.8932 53.8324 81.2984 53.8253C83.9909 54.1937 86.8379 54.6725 88.6621 56.365C90.523 58.0059 91.4274 60.4412 90.8236 62.81C90.2567 65.1273 88.3508 67.0323 85.9597 67.6571C83.5465 68.4218 80.7584 67.7517 78.1911 66.7727C75.609 65.7054 73.1448 64.2557 70.9235 62.3571C69.8128 61.4079 68.739 60.4072 67.7019 59.3549L67.209 58.8472C69.0997 59.0315 70.9388 59.1789 72.8589 59.5398C75.1689 59.7904 77.4273 60.5487 79.7299 61.0274C82.0104 61.6459 84.1805 62.4188 86.3874 63.1402L86.5786 63.199C86.5786 63.199 86.5787 63.199 86.6301 63.2358C87.535 63.4935 88.4474 62.9788 88.7419 62.0224C88.9995 61.1176 88.4847 60.2052 87.5284 59.9108C85.1964 59.2555 82.8865 58.4604 80.5177 57.8567C78.1268 57.3927 75.7433 56.7007 73.3451 56.4648C71.6163 56.1628 69.7918 56.1035 68.0409 55.9413L68.6442 55.7502ZM51.6055 21.2505C50.7376 20.3969 49.9212 19.5802 49.1415 18.7119C47.5822 16.9754 46.3467 15.0035 45.5011 12.9213C44.7437 10.8245 44.3763 8.61732 45.0021 6.65317C45.591 4.74052 47.2539 3.28418 49.1962 2.96088C51.087 2.60078 53.1027 3.26332 54.4413 4.76439C55.7799 6.26546 56.3753 8.48 56.603 10.6651C56.757 12.9531 56.6462 15.2852 55.9615 17.4406C55.645 18.5367 55.2401 19.6475 54.7838 20.7215C54.747 20.773 54.7102 20.8244 54.7249 20.9127C54.6662 20.0152 54.6958 19.103 54.6004 18.2569C54.1966 13.9236 52.9468 9.68582 51.6234 5.55101C51.3661 4.82263 50.5349 4.46197 49.8065 4.71931C49.0781 4.97665 48.7174 5.80787 48.9748 6.53625L48.9895 6.62455C50.4085 10.5166 51.7025 14.4749 52.1651 18.6169C52.3415 19.6763 52.3045 20.8166 52.444 21.9275L51.6055 21.2505ZM23.1893 41.3142C22.1742 40.6665 21.2326 39.9159 20.3279 39.1138C18.5331 37.598 16.9592 35.7732 15.6869 33.8528C14.5028 31.9177 13.7308 29.7325 13.9372 27.7021C14.1436 25.6716 15.4314 23.8695 17.2634 23.1562C19.0954 22.443 21.2288 22.723 22.7661 24.0549C24.3917 25.3721 25.3771 27.4764 26.0093 29.6394C26.6048 31.8539 26.8618 34.2156 26.6627 36.5623C26.5889 37.7541 26.4267 38.9606 26.2132 40.1303L26.2278 40.2186C25.9779 39.2621 25.8163 38.291 25.5148 37.2978C24.3165 33.0968 22.2648 29.2193 20.0879 25.408C19.7055 24.7458 18.8007 24.4881 18.1017 24.922C17.4395 25.3044 17.1819 26.2093 17.6158 26.9083L17.6304 26.9966C19.7632 30.543 21.7709 34.1556 23.028 38.1653C23.4618 39.4087 23.7706 40.7183 24.1161 41.9764L23.1893 41.3142ZM96.1703 35.5172C89.4677 38.0393 82.0005 38.148 75.0781 36.0793C79.6254 32.3283 92.4503 22.9804 108.746 22.4908C108.819 22.9323 108.856 23.4251 108.804 23.9328C108.45 28.3468 103.851 32.6055 96.1703 35.5172ZM85.2043 20.6027C93.8424 14.719 101.17 15.1324 105.135 17.4212C105.789 17.8113 106.356 18.2161 106.849 18.7238C107.003 18.8342 107.069 18.9592 107.187 19.121C93.0026 20.0304 81.6129 26.8258 75.6014 31.3196C77.7357 27.7888 80.9662 23.4857 85.2043 20.6027ZM63.4872 90.7236C61.074 91.4882 58.2859 90.8181 55.7186 89.8392C53.1365 88.7719 50.6724 87.3221 48.451 85.4236C47.3403 84.4743 46.2663 83.4735 45.2292 82.4213L44.7365 81.9136C46.6272 82.0979 48.4663 82.2454 50.3864 82.6063C52.6964 82.8569 54.9547 83.6151 57.2573 84.0938C59.5378 84.7122 61.7079 85.4851 63.9148 86.2065L64.1061 86.2655C64.1061 86.2655 64.1062 86.2655 64.1576 86.3023C65.0625 86.56 65.9748 86.0451 66.2692 85.0888C66.5269 84.184 66.0121 83.2716 65.0558 82.9771C62.7238 82.3219 60.414 81.5269 58.0452 80.9232C55.6543 80.4592 53.3223 79.804 50.8726 79.5313C49.1438 79.2293 47.3193 79.17 45.5684 79.0078L46.1202 78.7798C47.5401 78.3167 48.9233 77.905 50.3212 77.5816C51.7191 77.2582 53.1684 76.9716 54.5589 76.8762C55.9494 76.7809 57.3692 76.862 58.7743 76.855C61.4669 77.2234 64.3139 77.7021 66.138 79.3946C67.999 81.0356 68.9033 83.4708 68.2996 85.8396C67.8356 88.2305 65.9298 90.1355 63.4872 90.7236Z" fill="#9C847E" fill-opacity="0.4"/>
</svg>
