<svg width="15" height="15" viewBox="0 0 15 15" fill="none" xmlns="http://www.w3.org/2000/svg">
<path d="M13.2567 2.83589C12.9767 2.52477 12.5567 2.36922 11.9967 2.36922C10.4722 2.33811 9.41444 3.13144 8.82332 4.74922C8.79221 4.81144 8.79221 4.87366 8.82332 4.93589C8.85444 4.99811 8.9011 5.04477 8.96332 5.07589C9.02555 5.107 9.07221 5.107 9.10332 5.07589C9.28999 5.04477 9.4611 5.02922 9.61666 5.02922C9.92777 5.02922 10.1455 5.107 10.27 5.26255C10.3944 5.41811 10.41 5.63589 10.3167 5.91589C10.2233 6.19589 9.92777 6.74033 9.42999 7.54922C8.93221 8.35811 8.62888 8.76255 8.51999 8.76255C8.4111 8.76255 8.18555 8.12477 7.84332 6.84922C7.68777 6.16477 7.48555 5.30922 7.23666 4.28255L7.18999 4.09589C7.06555 3.66033 6.97221 3.36477 6.90999 3.20922C6.81666 2.96033 6.68443 2.78144 6.51332 2.67255C6.34221 2.56366 6.1011 2.50922 5.78999 2.50922C5.19888 2.50922 3.95444 3.34922 2.05666 5.02922L1.86999 5.16922C1.80777 5.23144 1.76888 5.30922 1.75332 5.40255C1.73777 5.49589 1.7611 5.57366 1.82332 5.63589L2.05666 5.91589C2.11888 6.00922 2.19666 6.05589 2.28999 6.05589C2.38332 6.05589 2.4611 6.04033 2.52332 6.00922C3.08332 5.60477 3.45666 5.39477 3.64332 5.37922C3.82999 5.36366 4.0011 5.49589 4.15666 5.77589C4.31221 6.05589 4.46777 6.507 4.62332 7.12922C5.05888 8.65366 5.47888 9.85144 5.88332 10.7226C6.3811 11.8737 6.86332 12.4492 7.32999 12.4492C7.88999 12.4492 8.49666 12.2003 9.14999 11.7026C9.80332 11.2048 10.55 10.427 11.39 9.36922C12.9144 7.37811 13.6922 5.83811 13.7233 4.74922C13.7855 3.87811 13.63 3.24033 13.2567 2.83589Z" fill="white"/>
</svg>
